<svg width="199" height="200" viewBox="0 0 199 200" fill="none" xmlns="http://www.w3.org/2000/svg">
<g clip-path="url(#clip0_3_17690)">
<rect width="198.663" height="198.663" transform="translate(0.000976562 0.960938)" fill="#FF7B52"/>
<path d="M67.5851 142.055C47.3792 171.126 35.4438 213.915 27.0742 250.712C33.661 251.158 40.1982 251.504 46.7849 251.702C54.7088 217.431 65.8518 178.555 84.3739 151.861C91.5549 141.56 74.6671 131.853 67.5851 142.055Z" fill="#03036D"/>
<path d="M70.158 140.57C51.0911 199.801 58.6188 266.114 58.6188 266.114L137.164 264.678C137.164 264.678 147.862 169.096 130.231 140.619C112.65 112.143 70.158 140.57 70.158 140.57Z" fill="#03036D"/>
<path d="M111.067 112.737C105.124 112.737 100.122 115.313 97.9926 118.829C95.1697 116.699 90.9601 115.362 87.0972 115.362C78.6286 115.362 73.7752 119.869 72.8838 125.118C71.8437 131.16 72.0418 137.549 77.0933 142.848C82.2439 148.197 91.2573 151.515 100.617 150.772C120.279 149.237 124.983 133.587 125.33 122.494C125.429 117.244 118.595 112.737 111.067 112.737Z" fill="#FE7EB2"/>
<path d="M61.8455 180.319L56.7148 208.732L58.3232 209.023L63.4538 180.609L61.8455 180.319Z" fill="#A8E4F4"/>
<path d="M103.785 213.965L102.201 213.717C103.637 203.367 105.42 191.679 107.104 180.338C108.787 169.046 110.57 157.358 112.007 147.008L113.591 147.255C112.155 157.606 110.372 169.294 108.688 180.635C106.955 191.976 105.222 203.664 103.785 213.965Z" fill="#A8E4F4"/>
<path d="M99.6266 214.361C92.5942 197.275 82.7388 181.724 70.3082 168.056L69.813 167.511L81.055 155.031L82.2436 156.12L71.992 167.511C81.8969 178.555 90.217 190.787 96.7047 204.06C94.6247 196.285 92.6932 188.46 90.8608 180.833C88.1865 169.888 85.4131 158.547 82.194 147.454L83.7293 147.008C86.998 158.151 89.7713 169.492 92.4456 180.486C95.1199 191.431 97.8933 202.772 101.112 213.866L99.6266 214.361Z" fill="#A8E4F4"/>
<path d="M74.8646 163.747L65.356 161.914L71.1503 140.569L72.6856 141.015L67.3369 160.627L75.1618 162.162L74.8646 163.747Z" fill="#A8E4F4"/>
<path d="M116.316 160.826L115.82 159.29C117.455 158.746 119.634 157.557 121.763 156.368C123.645 155.328 125.626 154.239 127.26 153.545C126.765 151.416 125.874 149.187 125.032 147.058C124.091 144.631 123.1 142.155 122.605 139.629L124.19 139.332C124.685 141.709 125.626 144.136 126.567 146.464C127.508 148.89 128.499 151.366 128.994 153.892L129.142 154.586L128.449 154.833C126.815 155.378 124.636 156.566 122.506 157.755C120.327 158.993 118.098 160.231 116.316 160.826Z" fill="#A8E4F4"/>
<path d="M122.258 168.997C120.97 166.422 119.089 163.401 117.207 160.479C115.473 157.706 113.69 154.883 112.452 152.456C112.403 152.654 112.353 152.852 112.304 153.05C112.205 153.546 111.957 153.991 111.66 154.437C112.848 156.616 114.384 159.043 115.869 161.37C117.603 164.144 119.386 167.016 120.624 169.443C118.098 174.99 114.73 183.112 111.462 190.986C108.144 199.009 104.677 207.279 102.201 212.826L103.686 213.52C106.212 207.923 109.679 199.653 112.997 191.63C116.315 183.607 119.782 175.336 122.258 169.79L122.407 169.443L122.258 168.997Z" fill="#A8E4F4"/>
<path d="M113.295 22.2067C121.615 17.2543 110.621 34.8354 109.333 41.1745C114.483 35.083 121.763 30.8239 129.588 29.2887C132.114 28.7934 135.234 28.7934 136.571 30.9725C137.958 33.102 136.67 35.9249 135.234 38.0049C131.322 43.7498 126.072 48.5536 120.03 52.0699C115.325 54.7937 107.352 59.3995 102.003 56.1309C89.7707 48.6032 106.807 27.8029 113.295 22.2067Z" fill="#0000D8"/>
<path d="M47.1796 132.2C67.7322 150.326 150.487 139.48 158.758 123.434C162.373 116.501 162.225 101.594 158.758 85.3995C157.768 80.7937 156.084 76.0394 153.459 71.4336C144.445 55.4868 120.971 48.9991 101.954 48.2562C75.2104 47.2162 22.566 72.7708 33.8575 107.091C35.1947 111.152 37.2747 123.484 47.1796 132.2Z" fill="#FFB0D8"/>
<path d="M53.8651 81.1397C56.1432 76.8806 136.076 73.5625 138.997 75.9892C149.348 84.5074 155.142 84.1112 158.758 85.4483C157.767 80.8425 156.083 76.0882 153.459 71.4825C144.445 55.5356 120.971 49.0479 101.953 48.3051C75.2101 47.265 22.6152 72.8196 33.8573 107.14C42.1773 99.8599 48.566 90.9455 53.8651 81.1397Z" fill="#0000EF"/>
<path d="M98.8822 113.43C97.0002 113.43 95.465 112.142 94.5735 109.814C93.583 110.607 92.4935 111.102 91.4535 111.251C89.6211 111.498 87.7392 110.656 86.9468 109.171C86.5011 108.279 86.4515 107.19 86.8477 106.249C87.1944 105.407 87.8878 104.763 88.6802 104.515L89.1258 106.051C88.6306 106.199 88.383 106.645 88.284 106.843C88.0859 107.338 88.0858 107.932 88.3335 108.378C88.7792 109.27 90.0173 109.765 91.1564 109.616C92.4935 109.418 93.6326 108.477 94.3259 107.784L95.366 106.694L95.7126 108.131C96.0593 109.517 97.0002 111.894 98.9317 111.795C100.516 111.746 101.16 110.359 101.903 108.329L102.299 107.239L103.191 107.982C103.835 108.527 106.014 110.161 107.747 108.626C108.341 108.081 108.638 107.19 108.539 106.298C108.44 105.357 107.945 104.565 107.252 104.169L108.044 102.732C109.183 103.376 109.976 104.614 110.174 106.1C110.322 107.536 109.877 108.923 108.886 109.814C107.301 111.251 105.122 111.251 103.092 109.913C102.398 111.548 101.358 113.331 99.0307 113.43C98.9812 113.43 98.9317 113.43 98.8822 113.43Z" fill="#CC332F"/>
<path d="M80.3106 101.545C78.1316 107.587 71.3962 111.549 65.0076 110.658C60.5009 110.063 56.2913 107.042 54.558 102.833C53.3694 100.01 53.3199 97.1373 54.1122 94.463C54.8551 94.4135 55.5485 94.364 56.2913 94.364C63.1752 94.1163 70.1086 94.463 76.943 94.1659C77.4382 94.1659 77.983 94.1164 78.4782 94.0668C79.2211 94.0173 79.9639 93.9678 80.7068 93.9678C81.3011 96.444 81.2021 99.1183 80.3106 101.545Z" fill="white"/>
<path d="M77.9852 99.416C76.2024 104.368 70.6556 107.588 65.4556 106.894C61.7413 106.399 58.2745 103.923 56.8383 100.456C55.9964 98.376 55.8479 96.296 56.2936 94.3645C63.1775 94.1169 70.1108 94.4636 76.9452 94.1664C77.4405 94.1664 77.9852 94.1169 78.4805 94.0674C78.7281 95.8007 78.6291 97.6827 77.9852 99.416Z" fill="#03036D"/>
<path d="M144.297 98.4243C142.415 104.565 135.878 108.874 129.489 108.28C124.933 107.883 120.575 105.11 118.643 101C117.306 98.2262 117.157 95.3538 117.752 92.6795C118.495 92.5805 119.188 92.5309 119.931 92.4319C126.765 91.8376 133.698 91.7881 140.533 91.1442C141.028 91.0947 141.573 91.0452 142.068 90.9957C142.811 90.9461 143.554 90.8471 144.297 90.748C144.99 93.3233 145.04 95.9481 144.297 98.4243Z" fill="white"/>
<path d="M141.87 96.444C140.335 101.496 134.986 105.012 129.736 104.566C126.022 104.219 122.407 101.991 120.822 98.5736C119.881 96.5431 119.634 94.4631 119.931 92.4821C126.765 91.8878 133.698 91.8383 140.533 91.1945C141.028 91.1449 141.573 91.0954 142.068 91.0459C142.415 92.8288 142.415 94.6612 141.87 96.444Z" fill="#03036D"/>
<path d="M56.4417 90.3025L55.5503 88.9653C61.2951 85.2015 68.6247 84.0129 75.261 85.7957L74.8152 87.3805C68.6742 85.6967 61.7904 86.7863 56.4417 90.3025Z" fill="#03036D"/>
<path d="M139.741 86.9845C134.442 82.5273 126.419 81.5368 120.179 84.6073L119.437 83.1711C126.221 79.8034 134.987 80.893 140.732 85.7464L139.741 86.9845Z" fill="#03036D"/>
<path d="M117.933 115.383L82.4888 118.229L82.6196 119.859L118.064 117.012L117.933 115.383Z" fill="#CC332F"/>
<path d="M72.2886 80.398C77.5877 73.217 86.1058 68.7598 86.1058 68.7598L90.7116 80.398H72.2886Z" fill="#FFB0D8"/>
</g>
<defs>
<clipPath id="clip0_3_17690">
<rect width="198.663" height="198.663" fill="white" transform="translate(0.000976562 0.960938)"/>
</clipPath>
</defs>
</svg>
