<svg width="199" height="200" viewBox="0 0 199 200" fill="none" xmlns="http://www.w3.org/2000/svg">
<g clip-path="url(#clip0_3_17695)">
<rect width="198.663" height="198.663" transform="translate(0.157227 0.960938)" fill="#F97575"/>
<path fill-rule="evenodd" clip-rule="evenodd" d="M100.088 206.752C103.3 206.695 109.321 206.59 118.152 206.436C126.984 206.282 137.028 216.33 148.287 236.582C169.686 213.579 172.902 192.569 157.933 173.551C135.48 145.024 138.952 155.823 116.016 118.537C109.87 108.546 107.097 92.1104 107.697 69.2285L96.2139 122.808L100.088 206.752Z" fill="black" stroke="black" stroke-width="1.32442" stroke-linejoin="round"/>
<path d="M89.4967 41.2358L102.765 42.0214C122.075 43.1645 136.803 59.7454 135.659 79.0563C135.645 79.2956 135.629 79.5348 135.61 79.7732C134.487 93.8361 133.306 104.074 132.068 110.487C131.729 112.236 131.4 113.935 131.079 115.583C128.612 128.259 117.604 137.475 104.692 137.676L104.664 137.677C101.426 137.727 98.2263 137.415 95.1188 136.768L96.0153 158.934L99.727 159.116C98.0889 166.402 92.1563 170.403 81.9301 171.119C71.703 171.833 64.0785 168.631 59.0557 161.512L67.4467 117.937L66.1306 116.191L62.2301 101.319C58.9969 88.9928 58.8744 76.0573 61.8734 63.6723L62.4619 61.2404C65.4477 48.91 76.8319 40.4858 89.4967 41.2358Z" fill="#F8B097"/>
<path fill-rule="evenodd" clip-rule="evenodd" d="M89.5578 40.2025C82.9754 39.8126 76.7257 41.8067 71.7343 45.501C66.7421 49.1945 63.008 54.5882 61.456 60.9967L60.8674 63.4287C57.8287 75.9801 57.9529 89.0894 61.2292 101.581L65.1818 116.651L66.344 118.193L57.957 161.743C63.1769 169.401 71.1715 172.907 82.002 172.151C87.3352 171.777 91.5369 170.523 94.627 168.439C98.1342 166.074 100.252 162.645 100.965 158.14L97.0109 157.946L96.2056 138.031C98.9777 138.523 101.817 138.755 104.708 138.711C111.409 138.606 117.615 136.163 122.466 132.101C127.318 128.038 130.814 122.358 132.095 115.781C132.415 114.133 132.745 112.433 133.083 110.682C134.327 104.246 135.514 93.9707 136.641 79.8557C136.661 79.6099 136.677 79.3632 136.692 79.1173C137.281 69.1767 133.784 59.9381 127.656 53.0387C121.527 46.1384 112.766 41.5766 102.825 40.988L89.5578 40.2025Z" stroke="#030507" stroke-width="1.32442"/>
<path d="M130.648 98.7036C132.157 98.6241 133.316 97.3444 133.238 95.8453C133.159 94.3454 131.872 93.1939 130.363 93.2734C128.854 93.352 127.695 94.6318 127.773 96.1317C127.851 97.6308 129.139 98.7822 130.648 98.7036Z" fill="#030507"/>
<path d="M112.64 97.3714C114.149 97.2928 115.308 96.0131 115.23 94.5132C115.151 93.0141 113.864 91.8627 112.355 91.9413C110.846 92.0208 109.687 93.3005 109.765 94.7996C109.844 96.2995 111.131 97.4509 112.64 97.3714Z" fill="#030507"/>
<path fill-rule="evenodd" clip-rule="evenodd" d="M92.8046 61.5685C94.5412 63.3059 94.6729 79.0169 118.113 79.0169C121.63 79.0169 146.115 83.606 150.396 79.0169C153.051 76.1718 152.557 70.2227 144.602 61.6338C139.147 55.7435 134.496 54.1922 132.185 52.9423C131.311 52.4697 124.88 49.2348 112.892 43.2368C93.3046 33.4385 69.4824 41.3735 59.6833 60.9617C56.2034 67.9182 54.8459 75.7455 55.7804 83.4686L65.9644 119.163L79.2086 84.8112C85.9143 83.9495 91.0034 78.348 91.2211 71.591C91.4628 64.0939 91.9901 60.7531 92.8046 61.5685Z" fill="black" stroke="black" stroke-width="1.32442" stroke-linejoin="round"/>
<path fill-rule="evenodd" clip-rule="evenodd" d="M80.6446 86.6316C71.6841 78.556 64.504 77.7712 59.1054 84.2766C51.0065 94.036 58.5317 105.293 64.1589 108.11C67.9103 109.987 70.973 110.48 73.3471 109.589" fill="#F8B097"/>
<path d="M80.6446 86.6316C71.6841 78.556 64.504 77.7712 59.1054 84.2766C51.0065 94.036 58.5317 105.293 64.1589 108.11C67.9103 109.987 70.973 110.48 73.3471 109.589" stroke="#030507" stroke-width="1.32442" stroke-linecap="round" stroke-linejoin="round"/>
<path d="M69.496 85.6777C63.8259 87.0121 61.5702 91.2792 62.7308 98.4783" stroke="#030507" stroke-width="1.32442" stroke-linecap="round" stroke-linejoin="round"/>
<path d="M122.79 89.1143L123.547 106.04L117.811 105.37" stroke="#030507" stroke-width="1.32442" stroke-linecap="round" stroke-linejoin="round"/>
<path fill-rule="evenodd" clip-rule="evenodd" d="M117.849 111.996C119.02 114.266 121.189 112.733 121.913 111.397C122.638 110.061 116.279 108.953 117.849 111.996Z" fill="black" stroke="#030507" stroke-width="1.32442" stroke-linecap="round" stroke-linejoin="round"/>
<path fill-rule="evenodd" clip-rule="evenodd" d="M148.741 247.881C145.199 241.439 141.94 223.145 138.963 192.997C136.945 172.56 120.247 156.693 99.7338 155.722L97.1917 155.602C95.9642 164.144 90.5216 168.415 80.8641 168.415C66.3782 168.415 60.247 154.77 58.7206 155.137C49.1185 157.45 34.7146 160.92 15.5105 165.546C-7.39211 175.568 -17.5115 214.465 -14.8486 282.235C-12.0276 301.172 -10.002 315.476 -8.77115 325.144C-8.0303 330.955 -8.10891 340.06 -9.00538 352.444C-10.1924 368.825 1.43024 383.369 17.6751 385.819C35.1914 388.46 43.9491 389.776 43.9491 389.776L190.543 370.39V344.588C190.543 331.642 187.312 318.895 181.144 307.513C163.623 275.182 152.822 255.304 148.741 247.881Z" fill="white" stroke="#030507" stroke-width="1.32442" stroke-linecap="round" stroke-linejoin="round"/>
<path d="M84.1758 195.731C82.3473 195.731 80.8647 194.249 80.8647 192.42C80.8647 190.592 82.3473 189.109 84.1758 189.109C86.0043 189.109 87.4869 190.592 87.4869 192.42C87.4869 194.249 86.0043 195.731 84.1758 195.731Z" stroke="#030507" stroke-width="1.32442" stroke-linejoin="round"/>
<path d="M81.6924 169.799L111.492 217.667C113.026 181.143 112.057 160.862 108.587 156.826" stroke="#030507" stroke-width="1.32442" stroke-linecap="round" stroke-linejoin="round"/>
<path d="M81.6923 169.035L52.7205 229.669C47.2018 190.419 44.4429 166.69 44.4429 158.481" stroke="#030507" stroke-width="1.32442" stroke-linejoin="round"/>
</g>
<defs>
<clipPath id="clip0_3_17695">
<rect width="198.663" height="198.663" fill="white" transform="translate(0.157227 0.960938)"/>
</clipPath>
</defs>
</svg>
