<svg width="200" height="200" viewBox="0 0 200 200" fill="none" xmlns="http://www.w3.org/2000/svg">
<g clip-path="url(#clip0_3_16923)">
<rect width="198.663" height="198.663" transform="translate(0.868164 0.980469)" fill="#E773FA"/>
<path d="M121.599 38.5695C109.327 35.3367 85.3499 37.6416 74.3045 60.7203C64.8155 80.5362 68.7967 87.6604 60.6248 90.055C52.453 92.4497 45.7779 95.6526 42.575 100.442C39.3721 105.231 42.9641 116.995 36.1991 120.408C29.4042 123.79 20.6338 131.782 20.2446 139.355C35.0018 139.954 196.164 148.036 196.164 148.036C196.164 148.036 199.157 133.967 187.782 128.579C176.407 123.191 175.509 130.675 169.822 123.491C164.135 116.307 172.815 106.429 163.835 101.34C154.855 96.2513 154.556 104.034 148.27 97.7479C141.984 91.4619 154.825 47.3699 121.599 38.5695Z" fill="#0064C8"/>
<path d="M73.2862 76.7637C73.1366 79.787 73.3461 82.8402 72.8372 85.8335C71.6698 92.808 66.4315 98.9444 59.7563 101.219C55.1765 102.776 49.6388 102.866 46.5856 106.637C43.5024 110.409 44.5501 115.917 43.8616 120.736C42.7541 128.399 36.7375 134.805 29.5534 137.618C27.9071 138.277 26.171 138.756 24.6144 139.564C22.6388 139.474 21.1721 139.414 20.2441 139.384C20.6333 131.811 29.4337 123.819 36.1987 120.437C42.9936 117.054 39.4016 105.26 42.5745 100.471C45.7774 95.6816 52.4226 92.4788 60.6244 90.0841C68.7962 87.6894 64.8151 80.5653 74.304 60.7493C74.6632 60.0309 75.0224 59.3125 75.3816 58.624C75.4115 58.6839 75.4414 58.7438 75.4714 58.8036C77.896 63.1739 73.4958 72.0342 73.2862 76.7637Z" fill="#0F70D1"/>
<path d="M143.151 109.483C143.899 112.626 142.313 116.128 143.72 119.031C145.516 122.743 150.964 123.012 153.598 126.215C155.633 128.67 155.633 132.442 157.938 134.627C159.585 136.183 161.979 136.542 164.134 137.231C166.29 137.919 168.595 139.356 168.804 141.601C169.103 144.714 165.422 146.6 162.338 147.139C158.268 147.857 154.077 147.857 149.916 147.857C143.151 147.827 136.416 147.708 129.651 147.558C126.478 147.468 122.916 147.199 120.941 144.714C119.534 142.918 119.384 140.464 119.294 138.189C119.055 130.645 118.965 123.072 119.025 115.499C119.055 112.506 119.115 109.483 119.953 106.609C121.3 102.059 127.556 94.0967 133.213 95.1744C135.997 95.7132 136.266 98.5868 137.404 100.712C139.05 103.765 142.313 106.01 143.151 109.483Z" fill="#0055A8"/>
<path d="M81.31 91.2225C84.7523 93.4077 87.0273 97.2691 87.0273 101.639C87.0273 108.464 81.4896 114.002 74.6647 114.002C67.8399 114.002 62.3022 108.464 62.3022 101.639C62.3022 94.8145 67.8399 89.2769 74.6647 89.2769" stroke="#F9BD64" stroke-width="1.91574" stroke-miterlimit="10" stroke-linecap="round" stroke-linejoin="round"/>
<path d="M-2.44434 181.262L8.96031 153.783C13.5102 141.779 25.2142 133.997 38.0557 134.446L179.731 139.475C198.349 140.133 213.017 155.609 212.658 174.227L211.221 253.371L141.416 248.612L136.028 287.226L-2.44434 181.262Z" fill="#FACC73"/>
<path d="M159.045 138.757C153.448 146.54 147.88 154.292 142.282 162.075C140.696 164.29 139.02 166.565 136.595 167.852C132.734 169.888 128.064 168.78 123.694 169.199C116.689 169.828 110.733 174.288 104.506 177.491C98.2503 180.724 90.1982 182.639 84.5408 178.479C79.5119 174.797 77.8357 167.254 72.1184 164.769C65.8922 162.045 57.451 166.595 52.3623 162.105C47.0341 157.435 49.788 146.36 48.1417 139.954C47.8124 138.697 47.0341 136.841 46.2559 134.806L159.045 138.757Z" fill="#FBD488"/>
<path d="M212.656 174.258L211.189 253.402L178.861 251.187C179.34 246.727 180.717 242.357 182.842 238.435C185.446 233.646 189.038 229.455 191.642 224.666C194.247 219.877 195.833 214.099 193.977 208.981C193.049 206.377 191.283 204.132 190.206 201.587C185.775 191.081 193.379 180.364 195.803 170.367C197.958 161.446 191.852 151.928 194.845 143.666C205.711 149.563 212.895 161.117 212.656 174.258Z" fill="#F9BD64"/>
<path d="M150.816 138.457C150.816 138.457 148.96 141.6 145.129 145.701C137.705 153.663 122.948 165.218 100.229 164.649C76.7907 164.05 63.2907 150.49 57.0645 141.929C54.161 137.918 52.814 134.985 52.814 134.985L76.9104 135.853L80.0534 124.748L82.508 116.007C82.508 116.007 71.0435 110.769 74.1865 87.72C74.6654 84.128 75.8328 79.8774 77.2696 75.597C78.1078 73.1424 79.0057 70.6879 79.9337 68.3231C79.9337 68.2932 79.9636 68.2633 79.9636 68.2333C81.9393 63.2045 86.1898 59.373 91.4281 57.9961C92.1765 57.7865 92.9548 57.6069 93.763 57.4573C93.8228 57.4573 93.9126 57.4273 94.0024 57.4273C97.0556 56.8586 100.528 56.6491 104.27 57.0382C120.703 58.8641 129.563 64.6712 125.193 77.5426C122.589 85.2056 123.726 86.7322 125.971 85.3852C128.875 81.9428 132.048 80.8652 135.46 83.0504C139.232 85.4451 139.441 90.2643 137.586 94.455C136.209 97.598 131.359 99.0947 129.474 98.8553C129.444 98.9151 122.2 137.439 122.2 137.439L150.816 138.457Z" fill="#F8934F"/>
<path d="M94.0031 57.4272C93.7038 57.9062 93.2548 58.3552 92.8357 58.7443C90.3213 60.9594 87.5375 62.8153 84.8734 64.8507C83.5264 65.8685 81.8202 67.9938 79.9644 68.353C79.9644 68.323 79.9943 68.2931 79.9943 68.2632C81.9699 63.2343 86.2204 59.4029 91.4588 58.0259C92.2071 57.8164 92.9854 57.6368 93.7936 57.4871C93.8535 57.4572 93.9133 57.4272 94.0031 57.4272Z" fill="#F77C2D"/>
<path d="M129.533 98.8856C129.503 98.8856 129.503 98.8856 129.473 98.8856C129.444 98.9455 122.918 133.638 122.259 137.171C119.985 137.171 117.74 137.171 115.465 137.171C115.105 137.171 114.746 137.171 114.447 137.021C113.968 136.781 113.669 136.273 113.579 135.734C113.13 133.728 114.656 131.842 116.153 130.525C117.68 129.178 119.416 127.831 119.775 125.796C120.104 123.76 118.877 121.755 118.937 119.689C119.087 115.229 124.774 113.014 125.672 108.644C126.031 106.878 125.522 105.022 125.672 103.226C125.822 101.55 127.677 96.9399 129.533 98.8856Z" fill="#F77C2D"/>
<path d="M125.763 97.9575C125.763 97.9575 126.601 98.7058 129.475 98.8854" stroke="#BF3028" stroke-width="1.91574" stroke-miterlimit="10" stroke-linecap="round" stroke-linejoin="round"/>
<path d="M117.71 137.291L124.865 137.56" stroke="#BF3028" stroke-width="1.91574" stroke-miterlimit="10" stroke-linecap="round" stroke-linejoin="round"/>
<path d="M125.194 77.5432C124.775 78.8004 124.446 79.878 124.206 80.8359C123.937 80.5365 123.757 80.1474 123.608 79.7882C122.56 76.9745 123.009 73.8314 122.59 70.868C122.231 68.2339 121.123 65.7195 119.507 63.6241C118.04 61.7383 116.184 60.1518 114.059 59.0742C113.879 58.9844 113.7 58.8647 113.52 58.7749C123.817 61.5886 128.636 67.3658 125.194 77.5432Z" fill="#F77C2D"/>
<path d="M105.497 119.24L88.4647 121.934L80.0833 124.748L82.5379 116.007C82.5379 116.007 71.0734 110.769 74.2164 87.7202C74.6953 84.1282 75.8628 79.8777 77.2996 75.5972C63.9193 121.934 105.497 119.24 105.497 119.24Z" fill="#F9AF79"/>
<path d="M112.023 117.504C112.023 117.504 96.5178 123.731 82.479 116.008C80.8925 121.605 79.1265 127.861 79.1265 127.861C79.1265 127.861 100.948 126.634 112.023 117.504Z" fill="#BF3028"/>
<path d="M126.93 91.6419C126.93 91.6419 129.654 93.9468 131.899 91.8215C134.144 89.6962 132.857 86.8525 132.857 86.8525C131.899 87.1818 130.971 87.571 130.103 88.0798C128.726 88.9479 127.529 90.1452 126.93 91.6419Z" fill="#F77C2D"/>
<path d="M132.857 86.8819C132.857 86.8819 134.144 89.7256 131.899 91.8509C129.654 93.9762 126.93 91.6713 126.93 91.6713C127.528 90.1746 128.726 88.9773 130.133 88.1391C131.51 87.301 133.066 86.7921 134.623 86.373" stroke="#BF3028" stroke-width="1.91574" stroke-miterlimit="10" stroke-linecap="round" stroke-linejoin="round"/>
<path d="M96.5429 91.132C98.279 89.1564 92.2624 83.918 90.9752 87.061C90.4364 88.4978 94.4774 93.4967 96.5429 91.132Z" fill="#F77C2D"/>
<path d="M96.5419 76.9141C96.5419 76.9141 91.124 85.7444 91.0042 87.5404C90.8845 89.3364 94.1173 91.2821 94.1173 91.2821" stroke="#BF3028" stroke-width="1.91574" stroke-miterlimit="10" stroke-linecap="round" stroke-linejoin="round"/>
<path d="M84.7195 81.6138C84.5399 82.7214 84.8093 83.5894 85.6474 83.7092C86.4856 83.8289 87.2938 83.0506 87.4734 81.9431C87.653 80.8356 87.1142 79.8478 86.276 79.6981C85.4379 79.5484 84.8991 80.5063 84.7195 81.6138Z" fill="#1A1B16"/>
<path d="M101.812 84.9662C101.633 86.0737 101.902 86.9418 102.74 87.0615C103.578 87.1813 104.386 86.403 104.566 85.2955C104.746 84.1879 104.207 83.2001 103.369 83.0505C102.501 82.9307 101.962 83.8587 101.812 84.9662Z" fill="#1A1B16"/>
<path d="M84.3623 73.7108C84.3623 73.7108 88.8224 72.1542 91.7259 74.8183" stroke="#1A1B16" stroke-width="1.91574" stroke-miterlimit="10" stroke-linecap="round" stroke-linejoin="round"/>
<path d="M102.8 75.6569C102.8 75.6569 107.38 74.4595 110.912 76.6147" stroke="#1A1B16" stroke-width="1.91574" stroke-miterlimit="10" stroke-linecap="round" stroke-linejoin="round"/>
<path d="M90.7659 96.9396L102.829 93.0782C103.458 92.8686 104.086 93.3775 104.026 94.0061C103.907 95.8021 102.949 99.0349 98.0098 100.352C93.3701 101.609 91.185 99.6635 90.257 98.3464C89.9278 97.8376 90.1972 97.1192 90.7659 96.9396Z" fill="#1A1B16"/>
<path d="M93.3398 97.359L100.494 95.1738C100.494 95.1738 100.793 97.2093 97.5904 98.1372C93.8786 99.1849 93.3398 97.359 93.3398 97.359Z" fill="#EDE3EB"/>
<path d="M100.135 104.364C101.407 103.848 102.237 102.933 101.988 102.32C101.74 101.708 100.507 101.629 99.2357 102.144C97.964 102.66 97.1345 103.574 97.3829 104.187C97.6314 104.8 98.8637 104.879 100.135 104.364Z" fill="#F77C2D"/>
<path d="M99.0879 52.0103L112.019 73.263C112.019 73.2331 120.011 57.0091 99.0879 52.0103Z" fill="#0064C8"/>
<path d="M87.0259 68.952L108.368 56.1704C108.368 56.1704 92.2044 48.0585 87.0259 68.952Z" fill="#0064C8"/>
<path d="M113.518 38.5996C113.518 38.5996 106.424 44.1074 104.598 55.8113" stroke="#0055A8" stroke-width="1.91574" stroke-miterlimit="10" stroke-linecap="round" stroke-linejoin="round"/>
<path d="M135.668 97.6286C139.111 99.3947 141.685 102.717 142.283 106.818C143.301 113.583 138.632 119.869 131.867 120.857C125.102 121.875 118.816 117.205 117.828 110.44C116.84 103.675 121.48 97.3892 128.245 96.4014" stroke="#FBD488" stroke-width="1.91574" stroke-miterlimit="10" stroke-linecap="round" stroke-linejoin="round"/>
</g>
<defs>
<clipPath id="clip0_3_16923">
<rect width="198.663" height="198.663" fill="white" transform="translate(0.868164 0.980469)"/>
</clipPath>
</defs>
</svg>
