<svg width="200" height="200" viewBox="0 0 200 200" fill="none" xmlns="http://www.w3.org/2000/svg">
<g clip-path="url(#clip0_3_16042)">
<rect width="198.663" height="198.663" transform="translate(0.868164 0.583984)" fill="#FFA5A5"/>
<path d="M43.0778 144.011C46.0938 174.482 76.2694 168.528 90.9763 161.734C90.9763 164.004 92.0956 168.994 96.5574 170.736C104.533 173.347 106.834 163.304 106.989 157.956C108.279 160.288 111.84 165.465 115.711 167.455C131.039 173.938 139.745 159.045 142.186 150.789C148.514 153.23 162.21 156.215 166.33 148.613C170.45 141.011 166.594 130.704 164.153 126.49C175.362 121.5 170.278 112.996 166.33 109.358C168.879 105.674 172.781 97.0144 168.04 91.9152C159.07 83.5668 150.706 85.4324 147.643 87.4068C149.353 84.3441 151.747 76.0734 147.643 67.4763C143.539 58.8791 134.615 57.5577 130.666 57.9774C132.656 46.1466 124.012 44.6386 119.457 45.3537C119.877 41.9802 118.649 33.6473 111.669 31.5174C101.563 27.8951 96.0444 33.8805 94.5364 36.4767C85.3174 30.8645 79.6896 38.8087 78.0261 43.4882C75.3832 43.4882 71.1701 43.6436 66.9726 47.7013C61.8578 53.811 63.7079 61.2577 65.2625 64.2115C52.6855 64.4603 53.3695 76.1512 55.2973 81.9655C40.8391 87.9509 46.156 101.678 50.6333 107.804C30.4075 115.048 37.1701 134.963 43.0778 144.011Z" fill="black"/>
<path d="M64.8444 123.708L152.324 122.045C160.424 121.656 178.784 125.387 187.366 143.499C195.947 161.61 211.447 209.291 211.447 209.291L241.607 171.078C241.607 171.078 248.743 159.807 251.805 152.282C254.884 144.758 258.832 139.425 262.097 142.504C264.414 144.696 261.584 150.774 260.916 154.288L269.824 142.923C272.451 139.348 276.524 138.959 277.69 141.711C277.939 142.923 277.799 143.421 277.519 144.245C277.519 144.245 275.156 148.722 274.659 149.515L280.613 142.504C282.09 140.809 285.805 139.161 287.003 142.923C287.096 143.297 287.003 143.794 286.8 144.245C286.8 144.245 285.417 147.136 284.717 148.116L287.174 145.66C290.174 143.623 293.221 145.131 290.532 150.292C289.164 152.376 287.935 154.226 287.5 154.879C287.5 154.879 288.308 153.961 290.532 151.894C292.755 149.826 297.512 150.557 294.962 156.216C294.962 156.216 247.67 224.06 224.615 256.708C220.262 261.62 205.602 272.767 190.164 256.708C184.552 252.152 169.767 215.307 163.067 205.84V225.521C163.067 225.521 88.2417 203.85 62.5746 230.901L62.87 205.84L10.3542 260.128C3.59155 265.103 -14.5666 272.067 -33.1601 260.128C-51.7381 248.188 -107.441 202.217 -109.711 200.523C-111.98 198.828 -112.633 193.496 -106.664 195.766C-104.86 196.527 -101.673 198.035 -100.771 198.471C-100.771 198.471 -106.415 194.833 -108.762 192.998C-111.094 191.164 -111.576 189.19 -110.659 187.479C-109.742 185.769 -106.555 186.313 -105.793 186.671L-97.8488 190.853L-105.793 184.743C-106.664 183.873 -107.954 181.23 -106.228 179.737C-104.409 178.167 -102.14 179.038 -100.336 180.577L-91.5836 186.36C-91.5836 186.36 -97.2269 177.576 -97.5378 175.726C-97.8488 173.876 -95.5634 172.353 -93.7756 173.674C-91.9722 174.996 -86.8574 182.271 -84.4944 185.536L-77.4052 188.614C-77.4052 188.614 -81.012 183.826 -82.9553 180.577C-84.712 177.654 -82.2868 173.363 -77.996 175.96C-77.2653 176.41 -77.1409 176.752 -76.6124 177.157C-76.6124 177.157 -62.263 194.444 -58.1277 200.196L-13.9603 225.211L31.4974 155.485C38.3533 145.846 46.8572 129.227 64.8444 123.708Z" fill="#6983FF"/>
<path d="M44.695 224.635L13.3379 184.245L39.1138 230.418L44.695 224.635Z" fill="black"/>
<path d="M174.54 227.931L205.788 192.081L177.618 234.352L174.54 227.931Z" fill="black"/>
<path d="M62.4346 246.415L63.7094 123.785C92.719 123.194 151.453 122.029 154.329 122.029C157.097 121.857 161.325 122.697 163.098 123.132V245.141L160.579 242.451C159.164 241.176 155.666 238.627 152.93 238.627C146.261 238.129 141.504 242.762 139.965 245.141C139.716 243.011 138.938 238.067 137.788 235.315C136.358 231.895 132.906 226.345 125.164 227.666C111.048 229.765 101.254 246.897 98.3779 253.567C98.269 250.504 96.9942 245.638 96.3724 244.767C95.7661 243.104 92.3303 237.243 83.2823 235.315C74.2498 233.372 65.6371 242.715 62.4346 246.415Z" fill="#FF85D2"/>
<path d="M143.603 187.51C141.271 188.909 135.675 193.2 131.866 199.139" stroke="white" stroke-width="1.49246" stroke-linecap="round"/>
<path d="M90.6521 172.415C88.3201 173.814 82.7079 178.105 78.9146 184.043" stroke="white" stroke-width="1.49246" stroke-linecap="round"/>
<path d="M155.106 163.553C153.085 161.719 147.364 157.584 140.601 155.656" stroke="white" stroke-width="1.49246" stroke-linecap="round"/>
<path d="M44.4942 224.883C44.4942 224.883 56.4338 212.555 62.8545 205.901L65.2331 123.676C54.3195 124.547 42.8929 137.652 38.5399 144.089L12.5308 183.545L44.4942 224.883Z" fill="white" stroke="black" stroke-width="1.49246"/>
<path d="M174.556 228.04L162.958 205.886V123.164C173.872 124.034 182.951 133.953 187.304 140.405L209.846 187.464L174.556 228.04Z" fill="white" stroke="black" stroke-width="1.49246"/>
<path d="M119.894 122.682L85.5835 123.241L109.292 236.963C114.22 232.517 119.972 229.066 122.397 228.273L119.894 122.682Z" fill="white" stroke="black" stroke-width="0.99497"/>
<path d="M78.6971 85.4324L75.961 80.613C82.6304 78.5298 81.0913 73.2285 79.4745 70.8343C88.7557 72.8087 92.0359 64.3515 92.5023 59.8896C95.5961 69.9326 103.136 69.4196 106.028 68.549C103.214 78.25 110.085 82.2298 115.293 84.111L116.459 89.49C121.341 85.4479 128.026 86.1786 129.643 91.0136C131.835 99.6107 124.839 102.145 117.252 101.818V109.685V123.241C117.252 123.241 114.469 126.724 111.345 128.278C100.82 134.124 90.8855 127.019 88.3204 123.241V110.726C85.1955 110.726 78.6816 111.115 75.9299 105.643C73.1471 100.015 76.0387 90.2052 78.6971 85.4324Z" fill="#6983FF"/>
<path d="M88.2891 116.152L98.0211 109.731C98.0211 109.731 95.0051 110.244 93.0774 110.447C91.1962 110.633 88.2891 110.726 88.2891 110.726V116.152Z" fill="black"/>
<path d="M88.8948 80.8931C87.9465 85.8057 91.7087 88.6974 91.7087 88.6974L87.2158 96.6416H92.5172" stroke="black" stroke-width="1.49246" stroke-linecap="round"/>
<path d="M98.207 80.8306C99.7617 80.5663 101.347 80.5974 102.436 80.8928" stroke="black" stroke-width="1.49246" stroke-linecap="round"/>
<path d="M81.4937 79.8819C83.0483 79.6176 84.634 79.6487 85.7223 79.9441" stroke="black" stroke-width="1.49246" stroke-linecap="round"/>
<path d="M95.7983 101.492C97.1975 100.745 98.4257 99.7659 99.0942 98.8486" stroke="black" stroke-width="1.49246" stroke-linecap="round"/>
<path d="M119.91 94.5114L125.553 89.9097" stroke="black" stroke-width="1.49246" stroke-linecap="round"/>
<path d="M124.03 91.5732L127.031 94.5115" stroke="black" stroke-width="1.49246" stroke-linecap="round"/>
<path d="M83.8421 87.5934C84.6063 87.5934 85.2258 86.974 85.2258 86.2098C85.2258 85.4456 84.6063 84.8262 83.8421 84.8262C83.078 84.8262 82.4585 85.4456 82.4585 86.2098C82.4585 86.974 83.078 87.5934 83.8421 87.5934Z" fill="black"/>
<path d="M99.6058 87.5934C100.37 87.5934 100.989 86.974 100.989 86.2098C100.989 85.4456 100.37 84.8262 99.6058 84.8262C98.8416 84.8262 98.2222 85.4456 98.2222 86.2098C98.2222 86.974 98.8416 87.5934 99.6058 87.5934Z" fill="black"/>
<path d="M121.744 145.768L130.885 152.92L146.26 123.148" stroke="white" stroke-width="1.49246" stroke-linecap="round"/>
<path d="M89.8587 147.804L80.7174 154.955L66.7412 125.635" stroke="white" stroke-width="1.49246" stroke-linecap="round"/>
</g>
<defs>
<clipPath id="clip0_3_16042">
<rect width="198.663" height="198.663" fill="white" transform="translate(0.868164 0.583984)"/>
</clipPath>
</defs>
</svg>
