<svg width="200" height="200" viewBox="0 0 200 200" fill="none" xmlns="http://www.w3.org/2000/svg">
<g clip-path="url(#clip0_3_16621)">
<rect width="198.663" height="198.663" transform="translate(0.446289 0.980469)" fill="#EFFC5E"/>
<path d="M42.1533 122.49C42.1533 122.49 42.8587 113.029 52.6514 110.996C62.4856 108.963 62.4026 111.701 70.2451 110.332C78.0875 108.963 80.0378 98.9624 80.0378 98.9624V112.407C80.0378 112.407 75.3489 116.266 63.7304 115.436C52.112 114.606 48.502 115.021 42.1533 122.49Z" fill="#0064C8"/>
<path d="M75.265 98.0078C75.265 98.0078 58.8331 69.4181 82.651 52.4884C106.344 35.6416 126.552 47.7995 132.361 61.6172C138.171 75.4348 132.361 89.294 132.361 89.294L89.4976 105.062L75.265 98.0078Z" fill="#0064C8"/>
<path d="M99.2063 44.937C95.4718 46.6798 91.5298 50.5388 89.2476 53.8583C86.5505 57.7588 88.4177 62.0742 86.592 66.1822C85.0982 69.5432 81.4052 70.9955 79.8699 74.3151C78.0441 78.2571 79.7039 82.1575 80.5753 86.058C81.5711 90.4979 82.2765 95.8092 77.2557 98.0084C76.9238 98.1744 76.5503 98.2989 76.2184 98.4234L75.347 98.0084C75.347 98.0084 58.9152 69.4187 82.733 52.489C88.4178 48.3811 93.978 45.9744 99.2063 44.937Z" fill="#0055A8"/>
<path d="M115.224 45.8496L91.6968 47.3019C91.6968 47.3019 91.4893 44.6048 90.6594 41.7002C66.0947 35.642 35.5963 56.0158 6.96509 77.5099C1.6538 81.4934 -3.61602 85.5183 -8.71984 89.4188C-41.5005 114.315 -104.157 123.735 -133.203 98.1327C-167.727 67.7172 -117.85 42.945 -109.551 49.9991C-115.527 50.331 -122.041 61.2856 -100.63 65.269C-95.2773 66.2649 -88.1402 66.8458 -78.8455 66.7213C-32.3717 66.0159 -27.3924 32.5714 32.6501 21.3679C92.6511 10.1644 115.224 45.8496 115.224 45.8496Z" fill="#0064C8"/>
<path d="M6.96509 77.5098C1.6538 81.4933 -3.61602 85.5183 -8.71984 89.4188C-41.5005 114.315 -104.157 123.735 -133.203 98.1326C-167.727 67.7171 -117.85 42.945 -109.551 49.999C-115.527 50.331 -122.041 61.2855 -100.63 65.269C-89.9245 71.2857 -72.5798 69.1695 -62.1647 67.7172C-50.3803 66.0989 -34.9443 58.6299 -26.6454 68.713C-17.3507 79.9995 -7.68245 74.8127 5.30531 77.0949C5.88623 77.2609 6.42566 77.3854 6.96509 77.5098Z" fill="#0055A8"/>
<path d="M-109.552 49.9989C-127.726 52.945 -129.012 66.9287 -125.07 76.4309C-115.07 100.498 -79.5926 94.7714 -59.3433 88.9622C-34.1561 81.7007 -12.994 67.2606 9.37154 54.6463C30.2433 42.8619 53.3142 32.4468 78.3354 34.3555C83.8541 34.7705 89.3314 35.7663 94.6426 37.2601" stroke="#173F80" stroke-width="3.31956" stroke-miterlimit="10" stroke-linecap="round" stroke-linejoin="round"/>
<path d="M97.9214 65.144L95.6807 71.7002" stroke="#173F80" stroke-width="3.31956" stroke-miterlimit="10" stroke-linecap="round" stroke-linejoin="round"/>
<path d="M60.6592 114.149L63.7713 111.701" stroke="#173F80" stroke-width="3.31956" stroke-miterlimit="10" stroke-linecap="round" stroke-linejoin="round"/>
<path d="M116.842 46.4721C107.963 43.692 98.2945 44.4803 89.7881 48.2978C89.7881 48.2978 89.7881 48.2563 89.7466 48.2563C88.2943 45.0198 90.0371 41.2438 93.4811 40.2894C99.6223 38.5881 106.095 38.2147 112.403 39.252C115.764 39.7915 117.88 43.194 116.842 46.4721V46.4721Z" fill="#F52A21"/>
<path d="M116.885 46.4312V46.4727C114.437 45.7258 111.947 45.2278 109.416 44.9789C109.374 44.8129 109.333 44.6469 109.291 44.4809C108.918 42.8211 108.296 41.7008 106.968 40.6219C106.428 40.1655 105.308 39.4186 104.686 38.6302C107.258 38.5887 109.872 38.7547 112.445 39.1696C115.806 39.7506 117.881 43.1531 116.885 46.4312Z" fill="#F65852"/>
<path d="M174.272 180.001V241.288C174.272 241.288 168.587 240.334 161.741 239.38C155.143 238.467 147.425 237.554 142.736 237.554C139.416 252.077 123.649 275.314 123.649 275.314C123.649 275.314 98.8349 343.572 69.0419 444.445C41.7386 407.1 -11.2913 420.462 -59.8399 425.441C-108.388 430.42 -143.7 394.942 -143.7 394.942L-40.2545 252.119L-7.76432 154.648C-1.1252 144.44 10.2857 138.341 22.4436 138.465L50.4524 138.756L121.408 139.503L134.313 139.627C135.765 139.627 137.217 139.752 138.628 139.918C138.67 139.918 138.67 139.918 138.711 139.918C158.794 142.324 174.272 159.337 174.272 180.001Z" fill="#5FAEF2"/>
<path d="M127.509 159.461C125.309 164.482 121.284 165.685 117.135 168.549C110.745 172.988 102.612 174.482 94.9354 172.781C91.0764 171.91 86.9685 170.831 82.985 170.706C81.0348 170.665 79.043 170.831 77.0928 170.748C70.9931 170.374 66.9266 166.681 63.0677 162.283C61.7398 160.748 60.163 159.212 59.0842 157.511C57.5489 155.146 57.2584 152.2 55.7646 149.834C55.3082 149.088 54.6028 147.635 53.9804 146.764C53.7314 146.39 53.7729 145.893 54.1049 145.644C59.6651 154.191 72.2794 167.594 96.6782 167.013C111.741 166.681 121.699 161.494 128.131 155.685C128.338 156.598 128.172 157.843 127.509 159.461Z" fill="#4598E0"/>
<path d="M-54.5693 271.912C-46.2704 264.526 -37.9715 257.14 -29.4651 249.961C-21.9961 243.696 -13.6558 239.629 -7.80506 232.077C5.2242 215.189 25.764 188.964 50.2457 199.836C61.2002 204.691 66.3456 211.039 78.7524 213.114C85.3915 214.234 96.5535 215.189 101.325 220.542C116.761 237.72 87.3417 259.795 80.7026 273.406C72.9847 289.173 88.96 305.979 80.0802 321.373C71.6983 335.896 51.4905 327.888 38.5443 336.27C27.0088 343.739 25.598 356.643 16.6767 365.731C6.09559 376.561 -5.2739 376.353 -19.4235 376.934C-28.4693 377.308 -36.5192 378.221 -44.4031 382.951C-53.9884 388.719 -59.5901 396.644 -71.6235 396.063C-81.5822 395.565 -92.7857 391.291 -99.8812 384.362C-106.147 378.221 -110.213 361.913 -118.263 360.336C-118.346 360.295 -118.471 360.212 -118.554 360.17L-54.5693 271.912Z" fill="#4598E0"/>
<path d="M153.814 238.384C149.623 237.928 145.598 237.554 142.735 237.554C142.694 237.72 142.652 237.886 142.611 238.052C142.362 236.351 142.901 235.604 143.606 233.695C146.221 226.475 147.382 218.508 147.714 210.832C147.88 206.765 146.801 202.989 146.47 198.591C147.756 198.923 149.25 203.985 149.748 205.479C151.241 209.919 151.241 214.815 152.071 219.38C152.818 223.446 155.847 233.156 153.814 238.384Z" fill="#4598E0"/>
<path d="M146.762 197.72C146.762 197.72 150.082 215.438 142.737 237.554" stroke="#1A1B16" stroke-width="2.65565" stroke-miterlimit="10" stroke-linecap="round" stroke-linejoin="round"/>
<path d="M174.273 180.002V241.289C174.273 241.289 168.588 240.335 161.742 239.38C162.281 234.401 165.144 229.836 165.144 224.401C165.186 217.056 162.945 211.703 164.729 204.11C166.306 197.346 170.663 190.707 167.759 183.944C166.389 180.79 163.485 178.217 162.53 174.939C161.742 172.159 161.825 168.508 161.451 165.603C160.373 157.47 157.219 154.441 150.04 150.167C146.14 147.843 139.999 144.565 138.671 139.876C138.712 139.876 138.712 139.876 138.754 139.876C158.796 142.325 174.273 159.337 174.273 180.002Z" fill="#71B6F2"/>
<path d="M138.752 139.918C136.76 145.644 127.382 166.308 96.6765 167.014C60.9913 167.843 50.4932 138.756 50.4932 138.756L74.809 138.216L79.5393 102.697C76.5517 101.245 74.477 97.8838 74.477 93.9418C74.477 88.7135 78.17 84.3566 82.7759 84.4396C83.7302 84.4396 87.0083 85.56 87.0083 90.1244C87.0083 94.6887 91.1578 95.6431 92.1121 90.1244C92.6101 87.2612 93.191 81.7425 94.6433 77.0121C95.9711 72.6552 98.0458 68.9207 101.531 68.5472C107.631 67.8418 127.258 65.5181 134.81 71.8253C134.851 71.8668 134.851 71.9498 134.893 72.0328C135.432 74.8959 134.934 99.5436 133.773 107.262C131.283 123.859 122.694 125.81 122.694 125.81L121.449 139.503L134.354 139.627C135.806 139.627 137.3 139.752 138.752 139.918Z" fill="#F8934F"/>
<path d="M86.9263 133.362C86.7188 135.437 85.4325 137.221 85.142 139.337C84.8515 141.495 85.474 143.694 84.3537 145.644C82.5279 148.715 78.8763 149.254 75.5983 149.213C72.1127 149.13 70.0795 147.221 66.8844 146.225C64.8512 145.603 62.6105 145.976 60.5773 146.35C58.2536 146.765 56.7183 147.387 55.2245 147.263C51.8635 142.491 50.4941 138.798 50.4941 138.798L74.8099 138.258L79.4158 103.818C80.0382 103.611 80.8266 103.569 81.781 103.777C85.0175 103.445 84.1461 110.499 83.6897 112.075C82.9428 114.524 82.4034 116.349 82.4034 118.964C82.4034 122.657 83.6067 124.15 85.2665 127.345C86.1794 129.13 87.1338 131.246 86.9263 133.362Z" fill="#F77C2D"/>
<path d="M104.604 123.735C104.604 123.735 114.687 128.839 122.695 125.81C122.239 130.914 122.073 132.74 122.073 132.74C122.073 132.74 112.238 133.113 104.604 123.735Z" fill="#BF3028"/>
<path d="M84.3117 96.0588C84.3117 96.0588 81.4486 97.5111 79.9133 95.1874C78.378 92.8637 80.0793 90.623 80.0793 90.623C80.8677 91.121 81.5731 91.6604 82.237 92.2828C83.2744 93.3202 84.1042 94.6065 84.3117 96.0588Z" fill="#F77C2D"/>
<path d="M80.0798 90.6229C80.0798 90.6229 78.3785 92.8636 79.9138 95.1873C81.4491 97.5109 84.3122 96.0586 84.3122 96.0586C84.1047 94.6063 83.2748 93.32 82.2375 92.2826C81.2001 91.2453 79.9138 90.4984 78.6689 89.793" stroke="#BF3028" stroke-width="2.65565" stroke-miterlimit="10" stroke-linecap="round" stroke-linejoin="round"/>
<path d="M79.541 102.656C79.541 102.656 82.1137 104.15 84.3129 103.735" stroke="#BF3028" stroke-width="2.65565" stroke-miterlimit="10" stroke-linecap="round" stroke-linejoin="round"/>
<path d="M74.6854 138.258L73.8555 142.034" stroke="#BF3028" stroke-width="2.65565" stroke-miterlimit="10" stroke-linecap="round" stroke-linejoin="round"/>
<path d="M121.45 139.503L120.952 144.815" stroke="#BF3028" stroke-width="2.65565" stroke-miterlimit="10" stroke-linecap="round" stroke-linejoin="round"/>
<path d="M134.894 72.0333C132.736 73.4856 129.624 71.7428 127.342 71.1619C124.355 70.3735 121.865 71.4523 118.919 71.4108C115.89 71.4108 113.027 70.332 110.039 70.2905C106.678 70.249 103.939 70.7884 100.869 72.2822C99.0429 73.1951 96.1383 74.8964 94.6445 76.9711C95.9724 72.6142 98.0471 68.8797 101.533 68.5062C107.632 67.8008 127.259 65.4771 134.811 71.7843C134.853 71.8673 134.853 71.9088 134.894 72.0333Z" fill="#F77C2D"/>
<path d="M114.975 100.249C113.73 98.589 119 94.9374 120.162 97.5101C121.365 100.083 116.635 102.531 114.975 100.249Z" fill="#F77C2D"/>
<path d="M109.747 93.4022C109.581 94.4396 109.083 95.145 108.295 95.0205C107.506 94.896 107.008 93.9416 107.174 92.9043C107.34 91.8669 108.129 91.12 108.876 91.2445C109.706 91.369 109.913 92.3649 109.747 93.4022Z" fill="#1A1B16"/>
<path d="M126.511 94.6061C126.345 95.6019 125.889 96.2658 125.142 96.1414C124.395 96.0169 123.938 95.104 124.104 94.1496C124.27 93.1538 124.976 92.4484 125.723 92.5728C126.47 92.6558 126.677 93.6102 126.511 94.6061Z" fill="#1A1B16"/>
<path d="M118.046 101.162L118.917 100.706C119.913 100.166 120.453 99.0872 120.328 97.9669L118.834 87.4688" stroke="#BF3028" stroke-width="2.65565" stroke-miterlimit="10" stroke-linecap="round" stroke-linejoin="round"/>
<path d="M106.012 101.867C104.394 102.779 104.228 105.311 105.141 106.929C106.386 109.211 108.834 110.954 111.323 111.618C113.647 112.24 116.469 111.95 118.211 110.166C119.249 109.087 119.788 106.97 118.253 106.058C117.423 105.56 116.344 105.726 115.431 105.684C114.228 105.601 113.025 105.394 112.07 104.647C110.784 103.651 109.207 101.493 107.464 101.493C106.883 101.493 106.386 101.659 106.012 101.867Z" fill="#1A1B16"/>
<path d="M116.429 106.722L115.225 107.926C114.105 109.004 113.441 109.585 112.072 108.838L110.495 108.216C109.458 107.635 108.794 106.556 108.669 105.394L108.462 102.78C109.831 103.942 110.08 104.025 111.698 104.896C113.566 105.809 114.437 106.224 116.429 106.722C116.429 106.722 116.47 106.722 116.429 106.722Z" fill="#F3EDF3"/>
<path d="M107.464 101.494V102.739C108.211 102.739 109.249 103.735 110.037 104.482C110.452 104.897 110.867 105.312 111.282 105.602C112.61 106.598 114.145 106.805 115.348 106.888C115.597 106.888 115.846 106.888 116.095 106.888C116.676 106.888 117.299 106.888 117.63 107.096C117.838 107.22 117.921 107.386 117.962 107.594C118.045 108.092 117.755 108.797 117.34 109.254C116.469 110.125 115.141 110.623 113.606 110.623C112.942 110.623 112.278 110.54 111.655 110.374C109.415 109.752 107.257 108.175 106.22 106.266C105.597 105.187 105.639 103.403 106.634 102.863C106.842 102.739 107.132 102.656 107.464 102.656V101.494ZM107.464 101.494C106.883 101.494 106.386 101.619 106.012 101.868C104.394 102.78 104.228 105.312 105.141 106.93C106.386 109.212 108.834 110.955 111.323 111.619C112.029 111.826 112.817 111.909 113.606 111.909C115.307 111.909 117.008 111.37 118.211 110.166C119.249 109.088 119.788 106.971 118.253 106.059C117.423 105.561 116.344 105.727 115.431 105.685C114.228 105.602 113.025 105.395 112.07 104.648C110.784 103.693 109.207 101.494 107.464 101.494Z" fill="#1A1B16"/>
<path d="M104.603 83.2781C104.603 83.2781 108.835 81.2448 113.067 82.0332" stroke="#1A1B16" stroke-width="2.65565" stroke-miterlimit="10" stroke-linecap="round" stroke-linejoin="round"/>
<path d="M124.187 82.3643C124.187 82.3643 127.755 82.4472 130.95 84.2315" stroke="#1A1B16" stroke-width="2.65565" stroke-miterlimit="10" stroke-linecap="round" stroke-linejoin="round"/>
<path d="M109.426 114.352C109.623 113.718 108.985 112.955 108 112.649C107.016 112.343 106.057 112.609 105.86 113.244C105.663 113.879 106.301 114.641 107.286 114.947C108.271 115.253 109.229 114.987 109.426 114.352Z" fill="#F77C2D"/>
</g>
<defs>
<clipPath id="clip0_3_16621">
<rect width="198.663" height="198.663" fill="white" transform="translate(0.446289 0.980469)"/>
</clipPath>
</defs>
</svg>
