<svg width="199" height="200" viewBox="0 0 199 200" fill="none" xmlns="http://www.w3.org/2000/svg">
<g clip-path="url(#clip0_3_16674)">
<rect width="198.663" height="198.663" transform="translate(0.157227 0.980469)" fill="#80C2FE"/>
<path d="M-25.5049 221.53C-25.5049 221.53 -17.7442 153.698 30.9818 144.921C69.2125 138.047 79.6155 137.918 79.6155 137.918L98.7216 157.375L133.257 136.329C133.257 136.329 183.978 140.135 204.877 154.788C225.775 169.441 235.106 218.001 236.141 258.412C216.98 301.262 209.145 322.105 209.145 322.105C209.145 322.105 160.216 350.025 116.664 336.795C73.1113 323.564 20.4125 326.89 -5.30862 335.353C-3.09128 310.87 -25.5049 221.53 -25.5049 221.53Z" fill="#F52A21"/>
<path d="M37.2444 196.955C33.2902 207.487 23.7556 216.08 23.9035 227.406C24.0328 238.308 33.3271 247.307 33.475 258.209C33.6228 269.573 23.885 278.756 22.8502 290.065C21.8709 300.763 28.7816 310.372 30.925 320.886C31.4978 323.713 31.7381 325.949 31.6457 328.739C16.9188 330.051 4.05826 332.305 -5.29152 335.391C-3.07418 310.889 -25.4878 221.549 -25.4878 221.549C-25.4878 221.549 -17.7271 153.717 30.9989 144.94C33.6228 144.478 36.0988 144.034 38.464 143.628C38.9259 146.196 39.1846 148.913 39.3324 151.795C40.0531 165.857 42.2334 183.669 37.2444 196.955Z" fill="#D6261D"/>
<path d="M235.808 249.524C233.997 254.07 231.706 258.393 228.712 262.274C222.171 270.7 211.639 276.668 201.069 275.301C205.356 287.995 209.662 300.763 212.47 313.827C210.234 319.389 209.2 322.142 209.2 322.142C209.2 322.142 185.068 335.908 155.614 339.53C155.503 339.215 155.411 338.901 155.337 338.587C152.99 329.755 158.33 320.849 159.309 311.776C160.474 301.04 155.485 290.36 156.519 279.588C157.757 266.69 167.532 254.642 164.502 242.059C162.894 235.389 157.887 229.975 155.965 223.396C153.877 216.246 155.632 208.614 155.706 201.168C155.799 191.411 152.972 181.914 151.53 172.268C150.163 163.029 151.401 149.3 156.815 139.341C172.946 142.02 193.42 146.787 204.913 154.825C224.278 168.388 233.701 211.146 235.808 249.524Z" fill="#D6261D"/>
<path d="M74.0716 138.362L50.0874 157.394L81.1117 153.2L72.3347 168.61L98.7211 157.394" stroke="#BF3028" stroke-width="2.06952" stroke-miterlimit="10" stroke-linecap="round" stroke-linejoin="round"/>
<path d="M133.274 136.348L147.409 157.394L116.385 153.2L125.162 168.61L98.7754 157.394" stroke="#BF3028" stroke-width="2.06952" stroke-miterlimit="10" stroke-linecap="round" stroke-linejoin="round"/>
<path d="M46.891 205.472C49.0529 212.439 48.6464 220.107 45.7824 225.78C45.5606 226.205 38.8716 214.674 38.3912 213.51C36.4511 208.835 35.213 203.828 34.7511 198.857C34.3446 194.275 34.5478 188.251 39.2966 192.889C42.715 196.197 45.4128 200.687 46.891 205.472Z" stroke="#F65852" stroke-width="3.2521" stroke-miterlimit="10" stroke-linecap="round" stroke-linejoin="round"/>
<path d="M126.179 189.581C126.179 189.581 125.477 178.144 114.871 172.748C111.434 181.71 120.082 191.466 120.082 191.466C120.082 191.466 108.201 193.887 105.577 206.526C110.436 205.694 120.544 202.313 123.352 195.956C120.359 204.013 127.842 215.229 127.842 215.229C127.842 215.229 133.09 204.752 127.842 194.256C137.58 194.071 141.498 182.098 141.313 178.901C134.846 179.363 131.039 182.283 126.179 189.581Z" stroke="#F65852" stroke-width="3.2521" stroke-miterlimit="10" stroke-linecap="round" stroke-linejoin="round"/>
<path d="M81.1488 187.419C82.2612 187.419 83.1629 186.518 83.1629 185.405C83.1629 184.293 82.2612 183.391 81.1488 183.391C80.0365 183.391 79.1348 184.293 79.1348 185.405C79.1348 186.518 80.0365 187.419 81.1488 187.419Z" fill="#F65852"/>
<path d="M98.7197 157.394C98.7197 157.394 90.109 254.292 94.7284 331.049" stroke="#BF3028" stroke-width="2.06952" stroke-miterlimit="10" stroke-linecap="round" stroke-linejoin="round"/>
<path d="M136.064 80.8043C133.976 80.1021 127.213 79.8989 126.012 89.2487C125.716 91.8171 123.259 93.2768 121.984 89.2487C120.69 85.2205 121.984 66.0775 121.984 66.0775C121.984 66.0775 108.347 45.5116 93.0846 54.4549C84.8989 59.2591 75.697 74.1153 69.2482 73.0436C69.2297 74.5218 69.2112 76.3696 69.2112 78.4761C69.2112 78.4761 67.7885 119.349 79.6143 127.295C79.6143 130.935 79.6143 137.938 79.6143 137.938L98.7204 157.395L133.255 136.349V101.666C137.265 100.853 140.684 97.5452 141.663 93.0366C142.79 87.8813 140.351 82.8368 136.064 80.8043Z" fill="#F8934F"/>
<path d="M105.334 130.009L98.6271 133.52L79.6318 129.436V127.274C67.806 119.31 69.2288 78.4559 69.2288 78.4559C69.2103 76.331 69.2288 74.4832 69.2658 73.0234L72.0005 76.9223C72.0005 76.9223 69.9864 113.859 80.9622 124.484C85.0828 128.475 93.4163 131.912 105.334 130.009Z" fill="#F9AF79"/>
<path d="M110.01 128.124C98.6642 143.221 79.4473 134.758 79.4473 134.758C79.4473 134.758 79.5212 130.36 79.5951 127.256C79.7429 127.348 79.8907 127.441 80.0385 127.533C89.1666 132.966 100.438 132.744 108.679 128.605C109.104 128.457 109.566 128.291 110.01 128.124Z" fill="#BF3028"/>
<path d="M121.724 88.0645C121.484 88.12 121.243 88.1569 121.003 88.1569C118.176 88.2493 116.143 85.3298 115.534 82.5766C114.924 79.8049 115.127 76.8485 114.018 74.2431C111.191 74.7974 108.605 76.1833 105.944 77.292C103.283 78.4191 100.4 79.3245 97.5548 78.8626C94.7092 78.4191 91.956 76.2572 91.6973 73.3747C91.568 71.9149 91.8821 70.0302 90.5886 69.328C89.7756 68.8845 88.7778 69.2171 87.9093 69.5867C85.0453 70.8062 82.2736 72.2105 79.6128 73.7996L80.3889 69.2541C80.4073 68.053 80.5182 66.852 80.7399 65.6879C84.8051 61.5673 89.055 56.7816 93.0831 54.4349C108.327 45.4916 121.982 66.0574 121.982 66.0574C121.982 66.0574 120.892 82.3734 121.724 88.0645Z" fill="#F77C2D"/>
<path d="M133.274 102.33V136.366L118.104 145.605C118.806 144.644 119.397 143.61 119.804 142.483C120.839 139.581 120.432 136.366 121.319 133.41C122.576 129.197 126.253 126 127.343 121.732C128.174 118.517 127.398 115.135 126.973 111.846C126.641 109.352 126.142 104.381 128.341 102.46C129.634 101.295 131.574 101.554 133.274 102.33Z" fill="#F77C2D"/>
<path d="M128.562 93.8848C128.562 93.8848 132.11 95.7326 134.05 92.8685C135.991 90.0044 133.884 87.1958 133.884 87.1958C132.923 87.7871 131.999 88.4523 131.186 89.2284C129.874 90.4849 128.84 92.1109 128.562 93.8848Z" fill="#F77C2D"/>
<path d="M133.885 87.215C133.885 87.215 135.991 90.0236 134.051 92.8877C132.111 95.7518 128.563 93.904 128.563 93.904C128.84 92.1116 129.875 90.5041 131.187 89.2476C132.499 87.9911 134.069 87.0487 135.677 86.1987" stroke="#BF3028" stroke-width="2.06952" stroke-miterlimit="10" stroke-linecap="round" stroke-linejoin="round"/>
<path d="M128.358 102.514C128.358 102.514 130.557 102.643 133.273 101.664" stroke="#BF3028" stroke-width="2.06952" stroke-miterlimit="10" stroke-linecap="round" stroke-linejoin="round"/>
<path d="M127.177 44.9379C116.516 35.6989 86.5447 27.6426 69.1755 42.9607C61.2485 49.9638 71.6331 52.4399 71.6331 52.4399C71.6331 52.4399 49.3303 65.1156 61.0453 76.8306C70.1548 85.9402 97.4281 60.4407 97.4281 60.4407C97.4281 60.4407 91.7 70.4188 99.9596 73.7448C108.219 77.0708 120.285 67.0928 120.285 67.0928C120.285 67.0928 113.578 87.4184 122.078 91.2987C130.577 95.1791 124.979 79.6577 137.174 81.0066C142.477 72.2666 139.022 55.193 127.177 44.9379Z" fill="#1A1B16"/>
<path d="M123.686 46.0828C123.686 46.0828 126.901 31.393 130.892 33.4625C134.884 35.532 125.996 48.023 125.996 48.023L123.686 46.0828Z" fill="#1A1B16"/>
<path d="M126.791 46.3411C126.791 46.3411 135.604 39.3196 136.953 42.4054C138.302 45.4912 127.234 48.5585 127.234 48.5585L126.791 46.3411Z" fill="#1A1B16"/>
<path d="M51.0297 152.792C49.5515 152.441 48.8493 150.094 48.4798 148.856C47.8146 146.584 47.5559 144.052 47.9439 141.706C48.4798 138.416 51.3623 135.663 54.8177 136.513C60.2871 137.862 59.5665 143.757 57.2752 147.508C56.2959 149.171 53.4873 153.384 51.0297 152.792Z" fill="#F3EDF3"/>
<path d="M51.6214 150.501C49.5519 150.002 49.4595 144.625 49.6627 143.147C50.0323 140.375 52.2311 138.564 55.0028 139.673C57.4049 140.652 57.2756 143.276 56.4256 145.309C55.8713 146.639 53.5431 150.963 51.6214 150.501Z" fill="#FACC73"/>
<path d="M52.3243 151.813C51.6961 153.199 49.257 153.44 47.982 153.55C45.6169 153.772 43.1039 153.532 40.868 152.7C37.7453 151.536 35.6019 148.173 37.0986 144.94C39.4822 139.821 45.1179 141.688 48.3516 144.644C49.7744 145.956 53.3591 149.522 52.3243 151.813Z" fill="#F3EDF3"/>
<path d="M50.1797 150.78C49.2928 152.72 44.0081 151.759 42.5853 151.279C39.943 150.373 38.5756 147.879 40.2017 145.366C41.6245 143.185 44.1744 143.832 46.0037 145.07C47.2048 145.883 50.9927 148.987 50.1797 150.78Z" fill="#FACC73"/>
<path d="M52.5265 150.945C53.5243 152.109 52.7113 154.401 52.2863 155.62C51.4917 157.856 50.2168 160.036 48.5353 161.736C46.1886 164.083 42.2159 164.619 39.9246 161.921C36.266 157.634 40.3126 153.274 44.3593 151.574C46.1332 150.816 50.8635 149.042 52.5265 150.945Z" fill="#F3EDF3"/>
<path d="M50.6973 152.46C52.0831 154.068 49.0158 158.484 47.981 159.574C46.0593 161.607 43.2138 161.792 41.6247 159.26C40.2388 157.061 41.9018 155.01 43.7866 153.865C44.9876 153.107 49.4038 150.964 50.6973 152.46Z" fill="#FACC73"/>
<path d="M50.9206 150.465C52.325 149.873 54.2651 151.333 55.2999 152.109C57.1846 153.55 58.8846 155.417 59.9748 157.542C61.5084 160.498 60.8063 164.434 57.5357 165.801C52.3434 167.963 49.4239 162.808 49.0359 158.429C48.8511 156.507 48.5924 151.444 50.9206 150.465Z" fill="#F3EDF3"/>
<path d="M51.8073 152.663C53.766 151.832 57.0365 156.1 57.7572 157.412C59.106 159.87 58.4224 162.623 55.5213 163.38C53.0084 164.027 51.5671 161.828 51.0312 159.685C50.6986 158.28 49.9965 153.421 51.8073 152.663Z" fill="#FACC73"/>
<path d="M51.3091 151.277C51.3276 149.744 53.471 148.561 54.5981 147.951C56.6861 146.806 59.0882 146.03 61.4719 145.882C64.7979 145.697 68.1054 147.914 68.0315 151.481C67.9022 157.116 61.9893 157.671 57.8318 156.248C55.984 155.62 51.2536 153.809 51.3091 151.277Z" fill="#F3EDF3"/>
<path d="M53.676 151.37C53.713 149.245 58.9422 147.989 60.4389 147.878C63.229 147.638 65.4833 149.393 64.9844 152.331C64.5594 154.899 61.9541 155.324 59.7737 154.936C58.3509 154.659 53.639 153.329 53.676 151.37Z" fill="#FACC73"/>
<path d="M53.5635 184.74C52.1408 184.186 51.7897 181.765 51.6049 180.49C51.2723 178.143 51.3647 175.612 52.0853 173.339C53.0646 170.161 56.3352 167.833 59.6243 169.163C64.8535 171.27 63.3014 176.998 60.5112 180.398C59.2732 181.876 55.9102 185.664 53.5635 184.74Z" fill="#F3EDF3"/>
<path d="M54.469 182.541C52.4919 181.765 53.1571 176.425 53.5636 174.984C54.3212 172.286 56.7418 170.808 59.3287 172.304C61.583 173.598 61.0656 176.185 59.9384 178.088C59.1993 179.307 56.2983 183.262 54.469 182.541Z" fill="#F9BD64"/>
<path d="M54.9675 183.945C54.136 185.22 51.7154 185.109 50.4219 185.054C48.0568 184.943 45.5992 184.333 43.4927 183.206C40.5548 181.617 38.9102 177.977 40.8504 175.002C43.9177 170.271 49.2393 172.895 52.0295 176.295C53.2675 177.773 56.3348 181.82 54.9675 183.945Z" fill="#F3EDF3"/>
<path d="M52.9904 182.614C51.8448 184.407 46.7449 182.725 45.396 182.042C42.9015 180.785 41.9037 178.106 43.8808 175.87C45.5993 173.911 48.0199 174.909 49.6644 176.387C50.7361 177.348 54.0621 180.97 52.9904 182.614Z" fill="#F9BD64"/>
<path d="M55.2818 183.114C56.0949 184.407 54.9862 186.569 54.3949 187.715C53.2862 189.821 51.7341 191.798 49.8124 193.24C47.1516 195.235 43.1604 195.217 41.2572 192.205C38.2453 187.438 42.8647 183.705 47.1146 182.578C48.9809 182.079 53.9329 180.989 55.2818 183.114Z" fill="#F3EDF3"/>
<path d="M53.2669 184.352C54.4126 186.144 50.7539 190.08 49.5714 191.004C47.3725 192.741 44.5454 192.537 43.3258 189.803C42.2726 187.437 44.1943 185.645 46.2269 184.758C47.5388 184.204 52.2137 182.689 53.2669 184.352Z" fill="#F9BD64"/>
<path d="M53.7675 182.394C55.2457 182.006 56.9642 183.724 57.8696 184.648C59.5326 186.33 60.9554 188.436 61.7314 190.691C62.8216 193.832 61.5836 197.638 58.1467 198.525C52.6958 199.948 50.5339 194.405 50.7556 190.025C50.8665 188.085 51.3284 183.059 53.7675 182.394Z" fill="#F3EDF3"/>
<path d="M54.3406 184.704C56.3916 184.15 59.034 188.843 59.5514 190.247C60.5492 192.871 59.4775 195.513 56.5025 195.828C53.9156 196.105 52.807 193.74 52.5852 191.541C52.4559 190.118 52.4374 185.203 54.3406 184.704Z" fill="#F9BD64"/>
<path d="M54.0439 183.262C54.2841 181.765 56.5568 180.878 57.7764 180.434C59.9937 179.603 62.4882 179.16 64.8719 179.344C68.1979 179.621 71.1543 182.301 70.5815 185.812C69.6576 191.373 63.7262 191.096 59.8089 189.101C58.0535 188.232 53.6374 185.756 54.0439 183.262Z" fill="#F3EDF3"/>
<path d="M56.3717 183.686C56.7043 181.58 62.0628 181.081 63.5595 181.173C66.3497 181.34 68.3268 183.372 67.4214 186.236C66.6269 188.712 64.003 188.768 61.8965 188.084C60.5476 187.622 56.0575 185.627 56.3717 183.686Z" fill="#F9BD64"/>
<path d="M57.1473 214.748C55.9093 213.861 56.1494 211.422 56.2973 210.147C56.5375 207.782 57.2766 205.361 58.5146 203.329C60.2515 200.483 63.9841 199.042 66.8481 201.148C71.3937 204.474 68.4926 209.648 64.9449 212.254C63.3928 213.399 59.1983 216.226 57.1473 214.748Z" fill="#F3EDF3"/>
<path d="M58.699 214.323C57.5903 215.358 55.2437 214.655 54.0241 214.267C51.7514 213.565 49.5155 212.383 47.7602 210.775C45.3026 208.521 44.6189 204.585 47.2243 202.164C51.3633 198.339 55.8719 202.201 57.7567 206.174C58.5697 207.929 60.5468 212.604 58.699 214.323Z" fill="#F3EDF3"/>
<path d="M142.904 214.028C141.537 214.711 139.504 213.4 138.414 212.697C136.418 211.404 134.608 209.649 133.37 207.616C131.633 204.77 132.058 200.798 135.236 199.209C140.28 196.677 143.532 201.629 144.234 205.971C144.549 207.856 145.158 212.882 142.904 214.028Z" fill="#F3EDF3"/>
<path d="M146.451 182.115C146.932 180.674 149.315 180.175 150.572 179.917C152.9 179.436 155.431 179.399 157.741 179.972C160.975 180.767 163.469 183.889 162.342 187.252C160.55 192.592 154.729 191.373 151.181 188.786C149.629 187.659 145.657 184.499 146.451 182.115Z" fill="#F3EDF3"/>
<path d="M148.685 182.892C149.35 180.878 154.709 181.229 156.168 181.543C158.903 182.153 160.529 184.481 159.18 187.142C158.016 189.452 155.411 189.101 153.434 188.084C152.177 187.438 148.057 184.758 148.685 182.892Z" fill="#F9BD64"/>
<path d="M147.32 183.465C145.989 182.725 145.952 180.286 145.952 178.993C145.934 176.609 146.377 174.133 147.393 171.971C148.798 168.96 152.346 167.093 155.431 168.867C160.328 171.657 158.018 177.127 154.785 180.102C153.362 181.414 149.518 184.703 147.32 183.465Z" fill="#F3EDF3"/>
<path d="M148.521 181.431C146.674 180.397 148.059 175.204 148.651 173.819C149.759 171.25 152.383 170.105 154.73 171.952C156.781 173.541 155.912 176.036 154.545 177.773C153.658 178.863 150.24 182.392 148.521 181.431Z" fill="#F9BD64"/>
<path d="M148.17 183.743C146.932 184.63 144.714 183.651 143.532 183.115C141.37 182.135 139.3 180.694 137.748 178.865C135.605 176.315 135.402 172.324 138.284 170.254C142.867 166.984 146.858 171.363 148.225 175.539C148.835 177.387 150.202 182.265 148.17 183.743Z" fill="#F3EDF3"/>
<path d="M146.803 181.803C145.085 183.041 140.946 179.623 139.948 178.495C138.082 176.407 138.137 173.562 140.78 172.194C143.089 170.993 144.993 172.823 145.99 174.8C146.637 176.075 148.411 180.639 146.803 181.803Z" fill="#F9BD64"/>
<path d="M148.778 182.19C149.259 183.632 147.633 185.461 146.764 186.422C145.175 188.196 143.161 189.711 140.962 190.635C137.895 191.91 134.015 190.893 132.925 187.512C131.188 182.153 136.583 179.677 140.981 179.64C142.939 179.622 148.002 179.788 148.778 182.19Z" fill="#F3EDF3"/>
<path d="M146.524 182.891C147.19 184.906 142.662 187.807 141.295 188.416C138.745 189.562 136.047 188.638 135.548 185.7C135.105 183.15 137.433 181.875 139.614 181.543C140.999 181.321 145.896 181.025 146.524 182.891Z" fill="#F9BD64"/>
<path d="M147.928 182.504C149.443 182.652 150.441 184.887 150.977 186.051C151.937 188.213 152.529 190.689 152.473 193.073C152.381 196.399 149.886 199.522 146.357 199.134C140.758 198.542 140.684 192.593 142.44 188.564C143.216 186.809 145.415 182.245 147.928 182.504Z" fill="#F3EDF3"/>
<path d="M147.649 184.851C149.755 185.072 150.568 190.376 150.568 191.872C150.568 194.662 148.647 196.769 145.746 196.03C143.233 195.383 143.011 192.759 143.584 190.634C143.972 189.248 145.69 184.666 147.649 184.851Z" fill="#F9BD64"/>
<path d="M151.404 151.813C150.646 150.483 151.884 148.376 152.549 147.267C153.769 145.216 155.432 143.332 157.409 142.001C160.181 140.153 164.172 140.394 165.89 143.498C168.643 148.413 163.821 151.905 159.515 152.792C157.649 153.199 152.66 154.012 151.404 151.813Z" fill="#F3EDF3"/>
<path d="M153.492 150.686C152.439 148.838 156.319 145.106 157.539 144.237C159.812 142.63 162.639 142.981 163.71 145.771C164.634 148.192 162.62 149.892 160.551 150.649C159.202 151.148 154.472 152.405 153.492 150.686Z" fill="#F9BD64"/>
<path d="M153.011 152.09C151.569 152.57 149.74 150.944 148.779 150.094C147.005 148.505 145.472 146.509 144.548 144.31C143.273 141.243 144.27 137.363 147.652 136.273C153.011 134.536 155.505 139.913 155.542 144.31C155.56 146.232 155.394 151.295 153.011 152.09Z" fill="#F3EDF3"/>
<path d="M152.29 149.817C150.276 150.482 147.357 145.974 146.747 144.606C145.601 142.056 146.507 139.359 149.445 138.841C151.995 138.398 153.27 140.708 153.621 142.888C153.861 144.311 154.175 149.207 152.29 149.817Z" fill="#F9BD64"/>
<path d="M153.768 151.648C153.602 153.163 151.366 154.142 150.183 154.659C148.003 155.602 145.545 156.156 143.162 156.082C139.836 155.971 136.75 153.421 137.156 149.892C137.821 144.293 143.753 144.293 147.763 146.086C149.518 146.88 154.045 149.135 153.768 151.648Z" fill="#F3EDF3"/>
<path d="M151.422 151.352C151.182 153.458 145.86 154.216 144.364 154.216C141.574 154.197 139.486 152.239 140.262 149.356C140.927 146.843 143.551 146.658 145.676 147.25C147.062 147.619 151.644 149.375 151.422 151.352Z" fill="#F9BD64"/>
<path d="M153.046 150.132C154.432 150.76 154.691 153.181 154.82 154.456C155.06 156.821 154.838 159.334 154.025 161.588C152.898 164.729 149.554 166.891 146.302 165.432C141.165 163.103 142.976 157.449 145.914 154.179C147.207 152.737 150.736 149.116 153.046 150.132Z" fill="#F3EDF3"/>
<path d="M152.029 152.294C153.969 153.162 153.064 158.465 152.602 159.888C151.733 162.549 149.239 163.935 146.726 162.308C144.545 160.904 145.155 158.354 146.375 156.506C147.169 155.305 150.237 151.48 152.029 152.294Z" fill="#F9BD64"/>
<path d="M152.696 150.982C153.823 149.965 156.151 150.723 157.371 151.111C159.625 151.85 161.842 153.07 163.561 154.733C165.963 157.042 166.591 160.978 163.93 163.343C159.717 167.094 155.283 163.14 153.49 159.13C152.696 157.375 150.83 152.663 152.696 150.982Z" fill="#F3EDF3"/>
<path d="M154.247 152.774C155.818 151.351 160.308 154.326 161.417 155.342C163.486 157.227 163.745 160.054 161.251 161.699C159.089 163.121 157.001 161.514 155.8 159.666C155.024 158.447 152.788 154.086 154.247 152.774Z" fill="#F9BD64"/>
<path d="M91.9775 100.372C93.5481 98.5977 88.1156 93.8674 86.97 96.6945C86.4526 97.9695 90.1113 102.478 91.9775 100.372Z" fill="#F77C2D"/>
<path d="M78.1194 90.5784C78.1749 91.7425 78.6368 92.5556 79.5053 92.5186C80.3737 92.4632 81.0389 91.4838 80.965 90.3382C80.8911 89.1926 80.152 88.2687 79.2835 88.3241C78.3966 88.3611 78.0455 89.4143 78.1194 90.5784Z" fill="#1A1B16"/>
<path d="M98.6302 90.5784C98.6856 91.7425 99.1476 92.5556 100.016 92.5186C100.884 92.4632 101.55 91.4838 101.476 90.3382C101.402 89.1926 100.663 88.2687 99.7943 88.3241C98.9073 88.3611 98.5563 89.4143 98.6302 90.5784Z" fill="#1A1B16"/>
<path d="M97.5576 81.8197C100.939 81.0067 104.468 81.0067 107.85 81.8197" stroke="#1A1B16" stroke-width="2.06952" stroke-miterlimit="10" stroke-linecap="round" stroke-linejoin="round"/>
<path d="M75.3296 81.8207C78.0274 81.1739 80.8175 81.0446 83.5522 81.4326" stroke="#1A1B16" stroke-width="2.06952" stroke-miterlimit="10" stroke-linecap="round" stroke-linejoin="round"/>
<path d="M97.0031 118.88C98.4596 118.289 99.4104 117.243 99.1267 116.543C98.843 115.843 97.4322 115.755 95.9757 116.345C94.5191 116.935 93.5684 117.981 93.8521 118.681C94.1358 119.381 95.5466 119.47 97.0031 118.88Z" fill="#F77C2D"/>
<path d="M91.0179 84.8135L87.1191 95.7708C86.6941 96.9904 87.0452 98.3393 88.0245 99.1892L89.5397 100.483" stroke="#BF3028" stroke-width="2.06952" stroke-miterlimit="10" stroke-linecap="round" stroke-linejoin="round"/>
<path d="M102.213 106.655C101.418 109.021 98.0925 111.57 95.1176 112.199C94.8219 112.254 94.5447 112.31 94.2676 112.328C91.6991 112.531 89.4818 111.922 88.1884 110.61C87.3938 109.815 87.0058 108.817 87.0797 107.801C87.1721 106.692 87.671 106.009 88.3916 105.602C89.4633 104.974 90.997 104.937 92.1611 104.9C92.8817 104.882 93.6393 104.863 94.1567 104.752C94.7665 104.604 95.5241 104.235 96.2632 103.847C97.5936 103.163 99.1827 102.35 100.587 102.867C100.883 102.978 101.16 103.145 101.437 103.385C102.342 104.198 102.638 105.38 102.213 106.655Z" fill="#1A1B16"/>
<path d="M98.7774 103.717C98.6295 104.327 98.3893 105.897 97.9643 106.488C96.8002 108.115 94.9155 108.318 92.6797 108.521C91.183 108.65 90.5732 106.803 90.333 106.193C91.183 105.565 92.384 105.528 93.3079 105.491C93.8807 105.472 94.472 105.454 94.8785 105.343C95.359 105.195 95.9503 104.825 96.5416 104.437C97.5948 103.735 98.7774 103.717 98.7774 103.717Z" fill="#EDE3EB"/>
<path d="M99.6081 103.975C99.7744 103.975 99.9037 103.993 100.052 104.03L100.125 104.049C100.273 104.104 100.421 104.196 100.55 104.326C101.234 104.917 101.16 105.693 100.975 106.229C100.347 108.132 97.4092 110.368 94.8408 110.904C94.6191 110.959 94.3789 110.996 94.1571 111.015C93.8615 111.033 93.5843 111.052 93.3072 111.052C91.5148 111.052 89.9627 110.553 89.0942 109.684C88.5583 109.167 88.3181 108.539 88.3551 107.873C88.4105 107.153 88.7247 106.876 89.0388 106.691C89.8333 106.229 91.1822 106.192 92.18 106.173H92.1985C92.9745 106.155 93.7876 106.137 94.4343 105.989C95.2104 105.804 96.0419 105.379 96.8364 104.972C97.7603 104.51 98.7951 103.975 99.6081 103.975ZM99.6081 102.681C98.4625 102.681 97.2799 103.291 96.2451 103.827C95.506 104.196 94.7669 104.584 94.1387 104.732C93.6213 104.843 92.8637 104.862 92.143 104.88C90.9789 104.917 89.4453 104.954 88.3736 105.582C87.6529 106.007 87.154 106.672 87.0616 107.781C86.9877 108.816 87.3758 109.814 88.1703 110.59C89.2975 111.717 91.1452 112.345 93.2887 112.345C93.6028 112.345 93.9169 112.327 94.2495 112.308C94.5267 112.29 94.8223 112.234 95.0995 112.179C98.0559 111.551 101.4 109.019 102.195 106.635C102.62 105.379 102.324 104.178 101.4 103.365C101.123 103.125 100.846 102.958 100.55 102.847C100.255 102.737 99.9407 102.681 99.6081 102.681Z" fill="#1A1B16"/>
</g>
<defs>
<clipPath id="clip0_3_16674">
<rect width="198.663" height="198.663" fill="white" transform="translate(0.157227 0.980469)"/>
</clipPath>
</defs>
</svg>
