<svg width="200" height="199" viewBox="0 0 200 199" fill="none" xmlns="http://www.w3.org/2000/svg">
<g clip-path="url(#clip0_3_14877)">
<rect width="198.663" height="198.663" transform="translate(0.868164)" fill="#719CCF"/>
<path d="M215.547 237.615C203.823 238.889 192.014 240.079 180.205 240.928C177.826 241.098 175.533 241.268 173.154 241.438C173.069 260.808 172.984 280.093 172.899 299.463C150.81 299.208 128.722 298.189 106.633 297.254C85.3094 296.32 63.9005 295.385 42.5765 295.47C32.8066 295.47 23.1216 295.555 13.3517 295.385C13.2667 284.936 13.1818 274.486 13.1818 264.121C9.61361 264.716 5.96053 264.036 2.90211 261.573C2.64725 257.75 2.56227 253.927 2.56227 250.189C2.39236 239.314 2.3924 228.355 2.3924 217.396C2.22249 193.353 2.73219 169.311 5.28087 145.438C6.81008 147.137 8.3393 148.751 9.86851 150.45C17.8544 137.792 27.7093 126.238 42.3217 121.31C51.7518 118.167 61.9465 118.592 71.6315 119.611C73.8403 119.866 76.1341 120.121 78.343 120.376C87.2634 121.395 96.2687 122.67 105.104 123.944C113.515 125.133 121.925 126.493 130.336 127.937C144.014 130.231 157.607 132.78 171.115 135.668C176.042 136.687 193.034 141.445 199.15 152.319L199.235 152.404C202.803 158.776 205.012 165.827 206.541 173.134C209.345 186.302 210.959 199.81 212.743 213.233C213.763 221.304 214.697 229.459 215.547 237.615Z" fill="#BCD7FD"/>
<path d="M130.337 127.852C125.409 139.066 116.659 148.157 103.321 149.261C87.2638 150.62 72.8213 135.413 78.3435 120.291C87.2638 121.31 96.2692 122.585 105.105 123.859C113.515 125.134 121.926 126.493 130.337 127.852Z" fill="#952C28"/>
<path d="M147.412 186.811C147.412 186.132 146.223 186.132 146.308 186.811C147.158 202.698 147.922 218.585 148.772 234.557C148.602 234.642 148.517 234.897 148.517 235.151C148.602 235.576 148.772 236.001 148.857 236.426C149.027 237.02 149.961 236.935 149.961 236.256C149.112 219.774 148.262 203.293 147.412 186.811Z" fill="white"/>
<path d="M24.3965 146.288C23.6319 151.725 22.8673 157.162 22.1027 162.599C22.0177 163.279 23.0372 163.619 23.2071 162.854C23.9717 157.417 24.7363 151.98 25.5009 146.542C25.5859 145.863 24.4815 145.608 24.3965 146.288Z" fill="white"/>
<path d="M9.78538 150.451C-10.689 127.513 -33.797 107.039 -59.1139 89.3682C-62.1723 85.715 -66.3351 83.4212 -71.4325 85.9699C-71.8573 86.2248 -75.9351 90.7275 -76.5298 92.4266C-81.2024 99.7328 -102.017 118.423 -101.507 120.547C-100.742 123.86 -89.9529 126.154 -90.7175 121.991C-90.1228 120.972 -89.783 120.292 -89.1883 119.358C-88.5936 119.103 -88.0838 118.848 -87.5741 118.593C-86.8945 124.795 -81.8821 129.467 -75.5104 129.467C-72.4519 137.963 -65.4006 144.165 -56.7351 146.374C-33.6271 194.544 0.0154836 257.496 1.96947 260.724C4.09337 264.208 8.68096 271.854 13.3535 270.494C14.373 238.211 17.8562 199.046 21.4243 166.933C17.8562 160.901 10.0402 149.942 9.78538 150.451Z" fill="#952C28"/>
<path d="M124.645 135.499L82.4217 131.591L81.912 119.782L81.3173 104.575L80.2129 78.4082H111.901C111.901 81.5516 124.645 135.499 124.645 135.499Z" fill="#952C28"/>
<path d="M119.717 54.96C113.005 40.7723 74.6899 39.5829 71.6315 54.6201C69.3377 66.0042 70.0173 73.7352 67.2138 82.5706C64.92 89.8769 63.0509 97.353 67.5536 104.234C76.6438 117.997 95.674 113.919 105.189 103.13C114.704 92.2556 126.343 68.9777 119.717 54.96Z" fill="#952C28"/>
<path d="M119.716 54.9604C115.468 45.8701 98.2222 42.1321 85.5637 44.5109C85.2239 44.3409 84.8841 44.0861 84.4593 44.0011C82.4204 43.2365 79.7018 43.4914 78.2575 44.9356C75.539 43.9162 72.2257 44.7657 70.6964 47.5693C68.5725 51.3923 71.3761 55.4702 71.3761 55.725C75.6239 57.9339 81.9106 58.6135 85.9885 59.2932C92.3602 60.4826 100.006 61.0773 105.019 60.6525C105.698 65.0702 105.273 76.5392 101.535 80.872C96.2682 86.9888 72.9053 83.1658 68.2328 78.4083C67.9779 79.7676 67.5531 81.1269 67.1283 82.4862C64.8345 89.7924 62.9655 97.2685 67.4681 104.15C76.5584 117.913 95.5885 113.835 105.104 103.045C114.704 92.2561 126.343 68.9782 119.716 54.9604Z" fill="black"/>
<path d="M82.5078 81.1269C81.3184 81.2118 79.9591 81.2968 78.7697 80.872C77.4104 80.3622 76.1361 78.7481 77.3255 77.3888C77.7503 76.8791 76.9857 76.0295 76.5609 76.6242C75.4565 77.8985 75.6264 79.6826 76.8158 80.872C78.345 82.4012 80.5538 82.4012 82.5928 82.2313C83.1874 82.1463 83.1875 81.0419 82.5078 81.1269Z" fill="black"/>
<path d="M93.1271 90.2173C93.0421 89.5376 91.9377 89.5376 92.0226 90.2173C92.2775 93.0208 90.1536 95.3146 87.3501 95.2297C86.6704 95.2297 86.6704 96.3341 87.3501 96.3341C90.7483 96.4191 93.4669 93.6155 93.1271 90.2173Z" fill="white"/>
<path d="M79.1084 69.6582C78.6836 74.1609 74.4359 77.5592 69.9332 76.3698C65.3456 75.1804 63.3916 70.168 65.1756 66.0051C65.4305 65.3255 64.496 64.8158 64.2411 65.4104C62.1172 70.2529 64.3261 76.0299 69.5933 77.3892C74.9456 78.8335 79.7031 74.8406 80.2128 69.5733C80.2978 68.9786 79.1934 68.9786 79.1084 69.6582Z" fill="#BCD7FD"/>
<path d="M101.112 71.7821C101.367 76.3698 97.7139 80.2777 93.0414 79.768C88.3688 79.2583 85.6502 74.5857 86.8396 70.168C87.0095 69.4883 85.99 69.0636 85.8201 69.7432C84.4608 74.8406 87.4343 80.1928 92.8715 80.7875C98.3087 81.3822 102.472 76.7945 102.217 71.5273C102.217 70.9326 101.112 71.0175 101.112 71.7821Z" fill="#BCD7FD"/>
<path d="M86.2432 71.3569C83.8644 71.187 81.5706 71.102 79.2768 70.9321C78.5972 70.9321 78.5972 72.0366 79.2768 72.0366C81.5706 72.2065 83.8644 72.2914 86.2432 72.4613C86.2432 72.0366 86.2432 71.6967 86.2432 71.3569Z" fill="#BCD7FD"/>
<path d="M92.5301 70.677C92.4451 71.6964 92.2752 72.7159 92.1902 73.7354C92.1053 74.7548 93.7195 74.7548 93.8044 73.7354C93.8894 72.7159 94.0593 71.6964 94.1443 70.677C94.2292 69.5725 92.615 69.5725 92.5301 70.677Z" fill="black"/>
<path d="M72.1414 66.5993C72.0565 67.6188 71.8865 68.6382 71.8016 69.6577C71.7166 70.6772 73.3308 70.6772 73.4158 69.6577C73.5007 68.6382 73.6706 67.6188 73.7556 66.5993C73.9255 65.4949 72.3113 65.4949 72.1414 66.5993Z" fill="black"/>
<path d="M129.061 76.5392C127.617 71.187 119.886 67.6188 113.684 71.8666C113.005 77.8135 112.155 83.7604 111.221 89.7073C114.194 91.4914 120.651 92.1711 124.559 89.5374C129.061 86.564 130.506 82.2312 129.061 76.5392Z" fill="#952C28"/>
<path d="M120.143 78.3234C118.529 79.8526 116.915 81.2969 115.385 82.8261C114.876 83.3358 115.64 84.0155 116.15 83.5907C116.235 83.5058 116.405 83.4208 116.49 83.3358C116.575 83.3358 116.575 83.2509 116.575 83.2509C118.019 81.8916 119.463 80.5323 120.908 79.173C121.502 78.6633 120.653 77.8987 120.143 78.3234Z" fill="black"/>
<path d="M76.0485 62.7767C74.9441 62.3519 73.8397 61.9271 72.7353 61.5024C72.1406 61.2475 71.5459 61.7572 71.3759 62.267C71.206 62.8617 71.6308 63.4563 72.1406 63.6263C73.245 64.051 74.3494 64.4758 75.4539 64.9006C76.0486 65.1555 76.6432 64.6457 76.8131 64.136C76.983 63.4563 76.6432 62.9466 76.0485 62.7767Z" fill="black"/>
<path d="M93.8906 61.8422C92.7861 61.7573 91.6818 61.7573 90.5773 61.6723C89.1331 61.5874 89.1331 63.7962 90.5773 63.8812C91.6818 63.9661 92.7861 63.9661 93.8906 64.0511C95.3348 64.136 95.3348 61.8422 93.8906 61.8422Z" fill="black"/>
</g>
<defs>
<clipPath id="clip0_3_14877">
<rect width="198.663" height="198.663" fill="white" transform="translate(0.868164)"/>
</clipPath>
</defs>
</svg>
