<svg width="199" height="200" viewBox="0 0 199 200" fill="none" xmlns="http://www.w3.org/2000/svg">
<g clip-path="url(#clip0_3_16973)">
<rect width="198.663" height="198.663" transform="translate(0.000976562 0.375977)" fill="#91C8FB"/>
<path d="M134.438 55.9434L63.8823 93.251C63.6584 92.811 63.4453 92.3425 63.241 91.8937C63.0811 91.5424 62.9213 91.1911 62.79 90.8504C53.5144 69.113 61.7665 44.6223 81.5462 35.732C97.5704 28.5296 116.356 33.7448 128.37 47.2926C130.653 49.8633 132.71 52.7706 134.438 55.9434Z" fill="#0064C8"/>
<path d="M108.43 33.3328C108.43 33.3328 95.7453 32.5534 107.052 8.47268C113.003 20.0721 113.246 29.8027 108.43 33.3328Z" fill="#0061CB"/>
<path d="M109.744 33.7753C109.744 33.7753 109.348 25.1206 129.015 21.3834C123.053 30.7659 114.47 35.8129 109.744 33.7753Z" fill="#0061CB"/>
<path d="M113.196 33.7333C113.427 31.7156 111.622 29.825 109.163 29.5106C106.705 29.1961 104.525 30.5769 104.294 32.5946C104.063 34.6123 105.868 36.503 108.327 36.8174C110.785 37.1318 112.965 35.751 113.196 33.7333Z" fill="#0061CB" stroke="#F9BD64" stroke-width="1.38212" stroke-miterlimit="10"/>
<path d="M113.196 33.7333C113.427 31.7156 111.622 29.825 109.163 29.5106C106.705 29.1961 104.525 30.5769 104.294 32.5946C104.063 34.6123 105.868 36.503 108.327 36.8174C110.785 37.1318 112.965 35.751 113.196 33.7333Z" fill="#0061CB" stroke="#F9BD64" stroke-width="1.38212" stroke-miterlimit="10"/>
<path d="M167.843 104.738C162.371 90.1627 157.232 86.2973 144.362 86.4102C137.69 86.4677 134.849 79.1573 134.976 69.0395L137.712 68.8119L140.214 68.6429C140.214 68.6429 137.808 57.0826 127.685 48.2454C121.519 42.8669 112.169 37.6136 99.463 39.3716C71.7565 43.1981 62.1227 62.3395 63.8269 86.1155C63.8659 86.6633 63.8762 87.2004 63.8776 87.7181C63.8045 96.2562 58.2856 103.966 49.9774 106.486C49.8117 106.537 49.6265 106.598 49.4324 106.639C37.9407 109.802 17.567 123.448 28.0243 142.429C20.8531 141.606 14.5667 150.889 16.5871 159.091C44.5217 153.959 190.375 125.168 190.375 125.168C190.375 125.168 185.538 103.073 167.843 104.738Z" fill="#F52A21"/>
<path d="M65.2366 110.496C62.9585 113.443 60.1844 116.643 60.6146 120.381C61.0068 123.829 64.0719 126.542 64.3103 130.013C64.573 133.9 61.2679 136.965 59.4424 140.391C57.4219 144.216 57.2601 149.08 59.3334 152.868C61.4067 156.655 65.808 159.155 70.061 158.641C74.0453 158.156 77.4695 155.25 79.3953 151.682C81.3211 148.115 81.9364 143.989 82.1187 139.945C82.638 127.493 79.1171 115.195 74.1032 103.8C73.0713 101.477 69.043 96.386 68.2855 101.336C67.7624 104.992 67.6838 107.352 65.2366 110.496Z" fill="#D6261D"/>
<path d="M27.3608 141.985C27.3608 141.985 30.2861 146.165 34.4459 147.425" stroke="#BF3028" stroke-width="1.72765" stroke-miterlimit="10" stroke-linecap="round" stroke-linejoin="round"/>
<path d="M168.085 105.762C168.085 105.762 165.324 105.321 160.594 107.115" stroke="#BF3028" stroke-width="1.72765" stroke-miterlimit="10" stroke-linecap="round" stroke-linejoin="round"/>
<path d="M73.9741 79.9146C73.9741 79.9146 76.3556 82.6097 77.7852 86.9634" stroke="#BF3028" stroke-width="1.72765" stroke-miterlimit="10" stroke-linecap="round" stroke-linejoin="round"/>
<path d="M83.8929 72.094L83.3463 67.119" stroke="#BF3028" stroke-width="1.72765" stroke-miterlimit="10" stroke-linecap="round" stroke-linejoin="round"/>
<path d="M79.6076 250.181L81.5263 224.649C74.23 233.707 46.7583 238.144 30.2174 225.669L20.6312 286.53L8.91812 325.472L-3.0205 246.453L-3.20162 245.288C-3.65638 242.292 -4.11112 239.296 -4.56588 236.3C-5.52249 230 -6.46845 223.671 -7.42506 217.371C-8.28018 211.755 -9.11568 206.13 -9.97977 200.494C-10.7317 195.514 -11.362 190.644 -10.5397 185.636C-9.85123 181.418 -8.33778 177.346 -6.14336 173.673C-1.68334 166.224 5.56729 160.67 13.9335 158.261C14.6648 158.049 15.4338 157.867 16.1831 157.693L70.513 145.942L70.5973 148.493C72.9312 151.3 81.4305 159.682 97.3261 155.877C116.308 151.316 120.48 141.078 120.48 141.078L120.456 135.158C120.456 135.158 168.493 124.762 168.513 124.753C171.956 124 175.463 123.642 178.995 123.649C182.46 123.663 185.931 124.051 189.312 124.809C192.664 125.557 195.936 126.646 199.061 128.084C202.671 129.751 206.081 131.861 209.189 134.343C212.193 136.753 214.923 139.547 217.258 142.612C218.255 143.904 219.183 145.251 220.041 146.653L238.705 177.023L79.6076 250.181Z" fill="white"/>
<path d="M-11.1867 191.065C-10.1509 189.612 -8.96787 188.588 -7.70486 188.001C-5.77234 187.127 -3.53639 187.393 -2.25371 188.671C-1.31248 189.61 -0.773589 191.115 -0.711339 193.126C-0.569124 197.187 -1.9505 201.103 -3.64677 204.737C-4.91265 205.942 -5.67447 207.482 -5.79995 209.13C-5.82796 209.38 -5.67395 209.617 -5.40878 209.683C-5.16304 209.759 -4.91044 209.642 -4.77813 209.414C-4.12203 208.16 -3.41479 206.812 -2.7624 205.394C-2.42693 205.096 -2.06317 204.808 -1.63397 204.561C0.358276 203.351 2.75627 203.091 4.65704 203.916C8.41256 205.516 10.3727 210.583 8.83955 214.735C7.42988 218.64 3.41052 221.503 -1.15057 221.867C-1.41917 221.897 -1.64691 222.121 -1.63777 222.402C-1.62863 222.682 -1.42691 222.92 -1.14059 222.93C1.58485 223.134 4.2657 224.593 6.18929 226.926C8.12174 229.278 9.04035 232.196 8.73226 234.948C8.42416 237.701 6.86823 240.345 4.48964 242.209C3.13346 243.266 1.53841 244.055 -0.164928 244.395C-1.28163 244.629 -2.43205 244.737 -3.52988 244.44L-3.35188 245.615C-3.32359 245.625 -3.29531 245.636 -3.24759 245.637C-2.4115 245.771 -1.56855 245.711 -0.752169 245.593C0.419393 245.428 1.55896 245.089 2.64709 244.583C3.52149 244.177 4.35158 243.673 5.12854 243.051C7.75258 241.002 9.44255 238.082 9.78923 235.05C10.1359 232.019 9.10385 228.798 7.00682 226.238C5.54155 224.451 3.67738 223.135 1.65831 222.412C5.45333 221.29 8.58916 218.552 9.85966 215.068C11.5548 210.39 9.33068 204.686 5.08539 202.887C2.97775 201.968 0.332297 202.201 -1.88083 203.442C-0.52347 200.202 0.51901 196.682 0.37907 193.094C0.298825 190.783 -0.326928 189.033 -1.49103 187.913C-3.06917 186.346 -5.79833 185.977 -8.11946 187.031L-8.17776 187.058C-9.26589 187.564 -10.2583 188.333 -11.1744 189.375L-11.1867 191.065Z" fill="#F77C2D"/>
<path d="M137.046 191.726C136.949 191.77 136.834 191.776 136.709 191.762C136.423 191.705 136.221 191.419 136.278 191.133C136.702 188.978 137.592 186.963 138.451 185.033C138.937 183.936 139.443 182.83 139.844 181.701C140.624 179.548 141.598 175.51 139.492 172.578C137.661 170.038 133.693 169.164 130.478 170.591C127.672 171.83 125.316 174.612 124.057 178.236C123.867 178.796 123.685 179.376 123.542 179.937C123.639 182.917 123.266 185.9 122.435 188.762C122.369 189.028 122.085 189.182 121.827 189.135C121.57 189.088 121.366 188.85 121.384 188.582C121.563 185.689 121.753 182.719 122.479 179.834C122.42 178.373 122.246 176.917 121.945 175.495C121.446 173.078 120.591 171.58 119.317 170.865C118.241 170.271 117.131 170.426 116.393 170.669C114.937 171.148 113.652 172.304 112.993 173.693C111.807 176.245 112.176 179.407 112.47 181.942C112.509 182.232 112.299 182.493 111.99 182.54C111.701 182.579 111.438 182.368 111.391 182.059C111.082 179.389 110.688 176.073 112.008 173.247C112.781 171.593 114.314 170.205 116.042 169.649C117.4 169.215 118.694 169.307 119.836 169.942C121.393 170.811 122.433 172.555 122.989 175.301C123.113 175.929 123.217 176.566 123.313 177.184C124.723 173.631 127.153 170.91 130.037 169.635C133.73 168.013 138.26 169.031 140.375 171.984C142.766 175.329 141.712 179.758 140.859 182.11C140.448 183.268 139.931 184.402 139.445 185.499C138.596 187.4 137.718 189.339 137.336 191.38C137.322 191.505 137.202 191.654 137.046 191.726Z" fill="#F77C2D"/>
<path d="M205.062 131.043C204.504 133.934 202.634 136.804 199.949 138.015C199.126 138.386 198.231 138.601 197.285 138.603C193.499 138.66 190.776 135.74 188.804 132.598C189.07 134.199 189.218 135.853 189.029 137.494C188.732 140.079 187.352 143.294 184.374 144.637L184.334 144.655C182.405 145.501 180.15 145.386 177.966 144.297C175.99 143.302 174.28 141.598 173.282 139.644C172.684 138.452 172.282 137.172 172.016 135.878C171.332 138.19 170.285 140.383 168.878 142.36C166.226 146.102 161.338 148.589 157.803 146.27C155.838 144.988 154.759 142.551 154.567 139.008C154.361 135.282 154.91 131.499 156.126 127.981L157.371 127.703C156.037 131.274 155.428 135.131 155.631 138.953C155.796 142.131 156.729 144.303 158.383 145.372C160.358 146.674 164.662 146.406 167.972 141.732C169.885 139.055 171.118 135.882 171.602 132.624C171.5 130.713 171.601 128.829 171.666 127.126C171.676 126.839 171.905 126.618 172.185 126.609C172.465 126.601 172.7 126.802 172.739 127.09C172.958 128.948 172.934 130.844 172.68 132.703C172.81 134.931 173.2 137.159 174.225 139.172C175.937 142.572 180.299 145.248 183.864 143.688L183.903 143.67C186.471 142.513 187.684 139.656 187.933 137.375C188.235 134.646 187.582 131.9 186.965 129.232C186.896 128.981 187.05 128.699 187.313 128.604C187.577 128.508 187.853 128.643 187.98 128.869C191.796 136.718 195.108 137.581 197.251 137.558C200.139 137.505 203.442 134.814 204.039 130.467C204.4 130.634 204.731 130.838 205.062 131.043Z" fill="#F77C2D"/>
<path d="M180.81 179.519C180.614 179.608 180.383 179.57 180.215 179.41C178.006 177.295 174.52 172.362 174.629 168.141C174.669 166.332 175.374 164.835 176.704 163.716C177.776 162.808 179.137 162.525 180.718 162.872C182.884 163.357 185.251 165.047 187.187 166.931C187.047 166.475 186.938 165.983 186.857 165.5C186.406 162.781 187.16 160.108 188.862 158.515C191.621 155.927 196.107 156.567 198.911 158.484C201.876 160.494 203.711 163.697 205.337 166.499C205.483 166.763 205.395 167.085 205.129 167.229C204.864 167.372 204.539 167.283 204.393 167.019C202.832 164.305 201.051 161.219 198.294 159.352C194.98 157.099 191.343 157.632 189.58 159.299C188.146 160.653 187.49 162.976 187.895 165.339C188.154 166.872 188.782 168.333 189.548 169.684C190.056 170.374 190.459 171.041 190.71 171.635C190.827 171.889 190.73 172.192 190.485 172.326C190.239 172.461 189.914 172.372 189.777 172.127C189.373 171.508 188.988 170.88 188.614 170.224C186.721 167.613 183.317 164.552 180.491 163.917C179.255 163.65 178.215 163.86 177.411 164.529C176.32 165.446 175.749 166.67 175.729 168.164C175.627 171.839 178.727 176.499 180.973 178.644C181.189 178.853 181.197 179.179 180.988 179.392C180.918 179.447 180.868 179.493 180.81 179.519Z" fill="#F77C2D"/>
<path d="M140.149 149.926C141.154 150.315 141.853 150.963 141.529 151.798C141.205 152.632 140.147 153 139.122 152.62C138.117 152.231 137.145 151.093 137.45 150.268C137.755 149.442 139.124 149.546 140.149 149.926Z" fill="#F77C2D"/>
<path d="M24.8438 196.964C24.1326 196.441 23.7522 195.764 24.1838 195.163C24.6243 194.581 25.5457 194.534 26.2569 195.057C26.968 195.581 27.4585 196.703 27.0269 197.305C26.5863 197.887 25.5355 197.497 24.8438 196.964Z" fill="#F77C2D"/>
<path d="M54.8474 154.467C55.411 156.973 55.319 158.878 54.5727 160.441C54.334 160.95 54.0201 161.398 53.6401 161.806C51.4379 164.214 47.2487 164.569 44.2456 163.186C41.5841 161.98 39.525 159.77 37.8316 157.585C38.3714 159.937 38.6941 162.434 38.0924 164.875C37.2981 168.183 34.1913 171.4 30.5334 170.855C27.413 170.398 25.4845 167.445 24.6156 165.714C23.0037 162.524 22.2748 158.889 22.4793 155.329L23.5773 155.093C23.3277 158.556 24.01 162.141 25.5769 165.233C26.3559 166.769 28.0635 169.397 30.7038 169.787C33.6511 170.228 36.3763 167.466 37.069 164.605C37.8088 161.488 36.9349 158.154 36.1536 155.227C36.0848 154.975 36.2087 154.73 36.4347 154.605C36.6698 154.499 36.9377 154.567 37.1044 154.775C39.116 157.548 41.395 160.697 44.7125 162.197C47.7441 163.591 52.1536 162.995 53.6144 159.953C54.2565 158.626 54.3119 156.949 53.8082 154.676C53.3717 152.702 52.6912 150.815 51.756 149.042L52.8344 148.815C53.7214 150.586 54.4109 152.493 54.8474 154.467Z" fill="#F77C2D"/>
<path d="M131.887 69.3125C131.913 69.6784 131.93 70.0247 131.964 70.4102C132.053 71.7388 132.169 73.126 132.264 74.57C132.824 82.341 133.91 91.5707 133.839 99.2529C133.662 116.451 121.727 122.316 121.727 122.316L121.758 129.809L121.803 140.272C121.803 140.272 117.655 150.552 98.7553 155.191C82.9183 159.088 74.4505 150.711 72.1356 147.875L70.8608 105.182L70.8403 103.539C69.0851 102.595 67.5896 101.084 66.6866 99.1131C65.864 97.3175 65.6508 95.4083 65.9533 93.5936C65.9973 93.4318 66.0324 93.2504 66.0959 93.0797C66.8738 90.2918 68.9998 85.1868 75.1456 85.6079C80.0932 85.94 78.601 99.1834 82.9053 98.9365C86.6801 98.7195 84.2269 78.6174 83.5698 73.6769C83.4879 72.9825 83.4246 72.5865 83.4246 72.5865L97.6807 71.6321L99.879 62.4568L106.11 71.0552L131.887 69.3125Z" fill="#F8934F"/>
<path d="M77.5556 97.6392C77.5556 97.6392 74.0017 99.2647 72.2797 96.3456C70.5577 93.4265 72.769 90.8136 72.769 90.8136C73.6652 91.4397 74.5207 92.1321 75.2664 92.9465C76.4922 94.2486 77.3905 95.8685 77.5556 97.6392Z" fill="#F77C2D"/>
<path d="M72.7974 90.7912C72.7974 90.7912 70.5954 93.4259 72.3049 96.3308C74.0232 99.2552 77.5747 97.6298 77.5747 97.6298C77.4109 95.8566 76.5058 94.2141 75.3105 92.9199C74.1151 91.6256 72.6418 90.6027 71.1455 89.6852" stroke="#BF3028" stroke-width="1.72765" stroke-miterlimit="10" stroke-linecap="round" stroke-linejoin="round"/>
<path d="M81.3854 135.191C82.029 137.198 81.7766 139.451 80.804 141.302C80.2825 142.279 79.5845 143.123 79.2324 144.165C78.6233 145.99 79.2104 147.974 79.4376 149.888C79.5831 151.151 79.5646 152.465 79.1879 153.66C75.1943 151.705 72.7315 149.09 71.6262 147.725L70.4475 104.741L70.4326 103.56C71.3714 103.981 72.5538 104.528 72.8171 105.166C73.4374 106.756 72.7188 108.441 73.7185 110.093C74.6281 111.596 76.1354 112.658 76.9374 114.234C78.8807 118.039 75.832 122.724 76.8087 126.88C77.5659 129.974 80.3971 132.157 81.3854 135.191Z" fill="#F77C2D"/>
<path d="M132.623 69.2548C132.648 69.619 132.664 69.9638 132.698 70.3476C130.656 71.6874 128.156 72.3889 125.7 72.6713C122.507 73.0507 119.295 72.875 116.098 73.0918C112.077 73.3738 108.089 74.2977 104.077 74.0829C101.985 73.9675 99.8938 73.5462 97.7778 73.5351C95.8066 73.5294 93.8317 73.8773 91.8551 74.0147C90.3628 74.1223 86.2576 74.3247 84.0293 73.449C83.9491 72.7576 83.8866 72.3632 83.8866 72.3632L98.2234 71.4575L100.462 62.332L106.7 70.9094L132.623 69.2548Z" fill="#F77C2D"/>
<path d="M132.486 74.327C132.49 74.4905 133.435 85.8908 133.782 91.4954C133.922 93.8641 134.015 96.1832 134.027 98.3745C134.023 98.778 134.029 99.153 134.026 99.5085C133.851 116.713 121.921 122.582 121.921 122.582L121.933 125.907L121.928 126.051C121.035 126.318 120.126 126.499 119.209 126.612C115.804 127.014 112.171 126.247 109.496 124.118C114.418 123.729 119.31 122.243 123.319 119.343C127.337 116.462 130.377 112.117 131.225 107.264C131.676 104.742 132.131 85.2602 132.095 82.3953C132.086 80.9824 131.913 79.5735 131.904 78.1606C131.897 77.2186 131.835 75.3811 132.486 74.327Z" fill="#F9AF79"/>
<path d="M121.54 122.612L121.57 130.1C118.856 130.42 108.553 130.998 103.832 122.61C103.821 122.639 111.763 126.913 121.54 122.612Z" fill="#BF3028"/>
<path d="M71.0957 103.509C71.0957 103.509 73.3538 104.814 75.9495 104.226" stroke="#BF3028" stroke-width="1.72765" stroke-miterlimit="10" stroke-linecap="round" stroke-linejoin="round"/>
<path d="M114.871 98.4174C116.54 99.2087 120.501 94.9865 118.769 93.0261C117.861 91.9823 110.842 96.5155 114.871 98.4174Z" fill="#F77C2D"/>
<path d="M116.247 112.537C116.227 113.369 115.017 113.263 113.544 113.205C112.072 113.148 110.865 113.204 110.905 112.363C110.945 111.522 112.259 110.618 113.742 110.647C115.214 110.705 116.287 111.697 116.247 112.537Z" fill="#F77C2D"/>
<path d="M106.411 90.5334C106.364 91.6189 105.964 92.395 105.169 92.3602C104.355 92.3343 103.733 91.4392 103.78 90.3537C103.827 89.2682 104.527 88.4247 105.322 88.4595C106.108 88.4748 106.458 89.4479 106.411 90.5334Z" fill="#1A1B16"/>
<path d="M126.152 89.2861C126.107 90.3237 125.728 91.0428 124.99 91.029C124.243 90.9957 123.668 90.15 123.713 89.1124C123.759 88.0748 124.4 87.2582 125.147 87.2915C125.894 87.3249 126.198 88.2485 126.152 89.2861Z" fill="#1A1B16"/>
<path d="M96.3498 83.0408C99.5555 81.3801 103.299 80.7429 106.897 81.2457" stroke="#BF3028" stroke-width="1.72765" stroke-miterlimit="10" stroke-linecap="round" stroke-linejoin="round"/>
<path d="M122.495 80.1372C125.336 79.7633 128.277 80.0715 130.97 81.0788" stroke="#BF3028" stroke-width="1.72765" stroke-miterlimit="10" stroke-linecap="round" stroke-linejoin="round"/>
<path d="M116.324 98.1084C117.03 97.5909 117.745 97.093 118.313 96.426C118.881 95.759 119.283 94.9319 119.285 94.0529C119.266 92.9703 118.613 91.9922 118.111 91.0385C117.045 89.0419 116.514 86.7734 116.555 84.5239" stroke="#BF3028" stroke-width="1.72765" stroke-miterlimit="10" stroke-linecap="round" stroke-linejoin="round"/>
<path d="M105.773 101.348C105.773 101.348 109.013 108.857 115.812 107.467C119.885 106.64 120.503 102.215 120.503 102.215C120.503 102.215 118.425 101.612 115.557 103.771C112.813 102.131 105.284 99.6657 105.773 101.348Z" fill="#F52A21"/>
<path d="M105.394 101.074C105.394 101.074 110.521 105.154 115.247 105.167C118.217 105.179 120.496 102.195 120.496 102.195" stroke="#BF3028" stroke-width="1.72765" stroke-miterlimit="10" stroke-linecap="round" stroke-linejoin="round"/>
</g>
<defs>
<clipPath id="clip0_3_16973">
<rect width="198.663" height="198.663" fill="white" transform="translate(0.000976562 0.375977)"/>
</clipPath>
</defs>
</svg>
