<svg width="199" height="200" viewBox="0 0 199 200" fill="none" xmlns="http://www.w3.org/2000/svg">
<g clip-path="url(#clip0_3_17030)">
<rect width="198.663" height="198.663" transform="translate(0.290039 0.375977)" fill="#6CFFB0"/>
<path d="M79.7873 60.8334C79.7873 60.8334 29.665 90.3873 47.4201 98.3697C67.5891 107.441 102.019 94.8913 102.019 94.8913L79.7873 60.8334Z" fill="#D6261D"/>
<path d="M108.135 242.887C108.135 242.887 248.004 307.575 271.353 311.981C294.71 316.415 309.022 322.434 315.755 310.867C323.259 309.94 323.808 307.59 326.377 301.495C332.816 300.501 330.382 290.297 319.425 288.285C308.498 286.264 274.3 272.979 274.3 272.979C274.3 272.979 308.265 268.582 308.549 262.141C308.871 255.722 263.147 252.707 263.147 252.707L130.097 188.217L108.135 242.887Z" fill="#F8934F"/>
<path d="M152.081 195.777C150.575 196.572 148.978 197.617 147.305 198.971C131.463 211.847 132.754 236.374 138.328 254.351C147.705 258.738 158.602 263.831 170.108 269.109C170.028 267.594 170.05 266.115 170.292 264.64C170.888 260.923 173.5 257.904 174.024 254.271C175.206 246.071 168.051 236.434 166.42 228.427C164.608 219.476 169.164 212.66 169.478 204.473L152.081 195.777Z" fill="#F77C2D"/>
<path d="M167.75 195.751L166.755 198.936L147.873 259.513L140.901 291.661L138.9 323.711L-42.8582 371.005C-42.8582 371.005 -37.5881 200.282 54.9684 145.456C56.0917 145.73 57.2229 146.033 58.354 146.337C75.1039 150.789 93.031 157.861 109.425 165.27L109.5 165.313C141.583 179.872 167.75 195.751 167.75 195.751Z" fill="#0064C8"/>
<path d="M64.0166 147.34C64.0166 147.34 92.4005 178.32 103.203 175.739C114.005 173.158 113.147 164.108 113.147 164.108L64.0166 147.34Z" fill="#0055A8"/>
<path d="M171.454 197.149L170.47 200.352C166.345 198.406 159.235 194.75 155.24 194.605C148.574 194.406 146.106 195.597 141.172 190.132C138.388 187.04 135.852 183.092 131.944 181.247C126.99 178.919 122.095 176.576 117.649 172.468C114.662 169.683 113.943 169.241 113.4 166.601L113.475 166.644C145.419 181.226 171.454 197.149 171.454 197.149Z" fill="#0F70D1"/>
<path d="M56.2645 143.743C54.6325 149.242 50.0511 154.992 46.5849 158.056C37.0586 166.503 26.8071 172.791 19.7077 183.896C11.8257 196.326 12.3357 213.309 6.46617 226.821C3.82684 232.908 -0.218617 238.069 -2.78363 244.2C-7.41476 255.374 -7.24836 267.708 -6.99974 279.638C-6.61328 298.66 -0.802635 313.582 -9.66716 331.113C-15.1001 341.866 -14.9667 352.522 -14.5145 363.316L-43.12 371.005C-43.12 371.005 -38.2895 198.435 52.9143 142.83C54.031 143.134 55.1478 143.439 56.2645 143.743Z" fill="#0F70D1"/>
<path d="M118.763 176.9C118.763 176.9 134.895 194.303 136.77 243.183" stroke="#1A1B16" stroke-width="2.50361" stroke-miterlimit="10" stroke-linecap="round" stroke-linejoin="round"/>
<path d="M62.8255 70.3346C62.8255 70.3346 62.5974 94.2174 75.7823 110.834C79.6227 115.659 87.8022 99.0276 87.8022 99.0276L91.8572 66.2716L62.8255 70.3346Z" fill="#1A1B16"/>
<path d="M136.802 74.3889C136.751 77.1908 136.698 79.8665 136.585 82.4316C136.588 82.6842 136.562 82.9446 136.536 83.2051L136.53 83.3018C134.321 132.181 120 137.284 120 137.284C120 137.284 119.496 139.447 118.741 142.691C117.013 150.156 114.084 163.361 113.305 169.273C105.293 172.907 86.8714 161.618 73.8963 152.419C73.388 152.048 72.8874 151.707 72.379 151.336C65.0535 146.073 60.7607 143.928 60.7607 143.928L68.7569 103.099L68.9297 102.197L69.0131 101.795C66.8694 100.372 63.153 97.0586 62.3804 94.1286C60.89 88.4759 63.6042 82.8379 67.8698 81.8857C71.0361 81.1962 78.1808 83.4969 78.5656 90.5864C79.0836 99.8581 84.9903 97.104 85.2224 85.2867C85.2915 82.1947 85.4875 73.7141 85.5745 72.4867C87.2386 72.9283 133.803 75.9525 136.802 74.3889Z" fill="#F8934F"/>
<path d="M137.503 78.5893L137.324 83.7945L137.318 83.8917C135.129 132.965 120.893 138.095 120.893 138.095C120.893 138.095 120.393 140.268 119.643 143.527L109.223 139.824C110.465 140.252 112.851 139.287 114.008 138.91C117.276 137.833 120.283 136 122.624 133.424C129.336 125.94 131.458 113.746 133.571 104.165C135.343 96.0453 136.563 87.8524 137.45 79.5903C137.431 79.2771 137.5 78.9402 137.503 78.5893Z" fill="#F9AF79"/>
<path d="M139.328 74.1654C139.292 75.3801 139.249 76.5658 139.206 77.7514C136.119 78.8752 132.448 79.2446 129.837 79.3557C126.301 79.5065 122.908 78.3549 119.366 78.9711C116.498 79.4541 113.699 80.8168 110.678 80.4712C107.46 80.1117 104.904 77.7353 101.528 78.0019C98.0538 78.2615 94.9312 80.3527 91.419 80.5906C90.5333 80.652 88.3369 80.1361 86.6093 79.3204C86.6961 77.1964 86.7599 74.9852 86.8479 73.4794C87.5584 72.8733 88.2993 72.3833 89.1237 71.9658C98.7626 72.8625 136.582 75.4843 139.328 74.1654Z" fill="#F77C2D"/>
<path d="M70.179 121.673C70.392 124.475 71.2439 126.747 72.3162 129.28C73.2093 131.348 75.0369 134.669 74.8319 137.04C74.6378 139.086 73.1102 141.114 72.4873 143.054C71.6269 145.766 71.9616 148.438 72.4712 151.19C72.5015 151.31 72.5319 151.431 72.5409 151.589C72.0439 151.212 71.5545 150.864 71.0574 150.487C63.8952 145.134 59.6966 142.949 59.6966 142.949L67.5948 101.526C68.5437 101.489 69.5091 101.641 70.1962 102.159C71.7611 101.502 72.4662 108.7 72.207 110.122C71.4677 113.925 69.8875 117.704 70.179 121.673Z" fill="#F77C2D"/>
<path d="M73.8617 93.2881C73.8617 93.2881 70.1919 94.8697 68.5693 91.81C66.9466 88.7503 69.2711 86.0974 69.2711 86.0974C70.1724 86.7892 70.9867 87.5063 71.7166 88.3755C72.8928 89.7509 73.7472 91.4433 73.8617 93.2881Z" fill="#F77C2D"/>
<path d="M69.2735 86.0622C69.2735 86.0622 66.9609 88.7262 68.5714 91.8021C70.182 94.8781 73.831 93.2918 73.831 93.2918C73.7263 91.4676 72.8706 89.7366 71.7025 88.3534C70.5345 86.9703 69.0751 85.8968 67.6025 84.8912" stroke="#BF3028" stroke-width="2.50361" stroke-miterlimit="10" stroke-linecap="round" stroke-linejoin="round"/>
<path d="M67.1162 99.3745C67.1162 99.3745 69.5014 101.606 73.1133 101.364" stroke="#BF3028" stroke-width="2.50361" stroke-miterlimit="10" stroke-linecap="round" stroke-linejoin="round"/>
<path d="M86.8325 133.416C86.8325 133.416 105.558 144.636 119.524 137.878C118.419 142.835 117.187 147.793 117.187 147.793C117.187 147.793 97.5134 149.543 86.8325 133.416Z" fill="#BF3028"/>
<path d="M114.035 108.448C113.125 106.08 118.16 101.343 120.079 104.246C121.967 107.156 115.135 111.388 114.035 108.448Z" fill="#F77C2D"/>
<path d="M105.228 95.9744C105.206 97.2825 104.746 98.2406 103.775 98.2345C102.804 98.2284 102.042 97.1458 102.064 95.8377C102.086 94.5296 102.886 93.4417 103.857 93.4478C104.828 93.454 105.25 94.6662 105.228 95.9744Z" fill="#1A1B16"/>
<path d="M128.282 96.7917C128.273 98.0321 127.834 98.952 126.891 98.9375C125.949 98.923 125.239 97.9209 125.248 96.6806C125.257 95.4403 126.045 94.4202 126.958 94.443C127.872 94.4658 128.32 95.5431 128.282 96.7917Z" fill="#1A1B16"/>
<path d="M97.2724 88.1849C97.2724 88.1849 102.868 86.0772 108.226 87.4074" stroke="#1A1B16" stroke-width="2.50361" stroke-miterlimit="10" stroke-linecap="round" stroke-linejoin="round"/>
<path d="M123.877 88.4492C123.877 88.4492 128.323 87.4372 132.843 88.5521" stroke="#1A1B16" stroke-width="2.50361" stroke-miterlimit="10" stroke-linecap="round" stroke-linejoin="round"/>
<path d="M111.953 121.237C112.009 120.259 110.917 119.357 109.512 119.223C108.108 119.088 106.923 119.772 106.866 120.75C106.809 121.728 107.902 122.63 109.306 122.764C110.711 122.898 111.896 122.215 111.953 121.237Z" fill="#F77C2D"/>
<path d="M105.074 113.2C108.943 116.162 113.583 117.259 118.441 116.114" stroke="#BF3028" stroke-width="2.50361" stroke-miterlimit="10" stroke-linecap="round" stroke-linejoin="round"/>
<path d="M116.299 90.3115L120.153 104.669C120.422 105.624 120.138 106.677 119.467 107.391L116.199 109.252" stroke="#BF3028" stroke-width="2.50361" stroke-miterlimit="10" stroke-linecap="round" stroke-linejoin="round"/>
<path d="M109.403 33.4899C109.403 33.4899 108.738 27.9387 110.876 27.6055C113.014 27.2723 113.161 34.0331 113.161 34.0331L109.403 33.4899Z" fill="#BF3028"/>
<path d="M139.528 73.7705C115.493 77.2351 82.4271 74.4538 69.7366 73.1356C66.4041 72.8017 64.4936 72.5588 64.4936 72.5588C64.4936 72.5588 60.4247 31.5596 108.349 32.8857C113.085 33.0332 117.105 33.8736 120.522 35.2513C142.215 44.0147 139.528 73.7705 139.528 73.7705Z" fill="#F52A21"/>
<path d="M111.752 74.6646C112.248 74.5264 112.533 74.0073 112.388 73.5052C112.244 73.0031 111.725 72.7081 111.229 72.8464C110.733 72.9846 110.448 73.5037 110.593 74.0058C110.737 74.5079 111.256 74.8029 111.752 74.6646Z" fill="#FF8A74"/>
<path d="M118.196 74.7872C118.692 74.649 118.977 74.1298 118.832 73.6278C118.687 73.1257 118.168 72.8307 117.673 72.9689C117.177 73.1072 116.892 73.6263 117.037 74.1284C117.181 74.6304 117.7 74.9254 118.196 74.7872Z" fill="#FF8A74"/>
<path d="M124.639 74.9097C125.135 74.7715 125.42 74.2524 125.275 73.7503C125.131 73.2482 124.612 72.9533 124.116 73.0915C123.62 73.2297 123.335 73.7488 123.48 74.2509C123.625 74.753 124.144 75.048 124.639 74.9097Z" fill="#FF8A74"/>
<path d="M121.508 34.9237C121.465 34.9971 121.413 35.0413 121.331 35.0932C118.563 37.9126 114.254 38.1981 110.462 38.0411C103.908 37.7454 99.4749 39.6497 95.421 44.6318C93.7494 46.6747 91.9462 49.6224 89.2673 50.583C87.5512 51.2057 85.5971 50.8619 83.8378 51.2154C80.4987 51.877 76.4627 53.3691 75.1402 56.6615C74.3386 58.6079 74.6591 61.0161 74.3494 63.1176C73.8751 66.3501 72.4184 70.4235 69.3525 72.2916C65.9847 71.9334 64.055 71.6767 64.055 71.6767C64.055 71.6767 60.6664 30.7739 109.159 32.4593C113.981 32.6347 118.044 33.532 121.508 34.9237Z" fill="#F65852"/>
<path d="M103.216 69.8865C111.415 70.9293 123.501 71.2495 131.659 69.9322C131.659 69.9322 133.262 54.4383 119.002 54.393C102.3 54.3088 103.216 69.8865 103.216 69.8865Z" fill="#1A1B16"/>
</g>
<defs>
<clipPath id="clip0_3_17030">
<rect width="198.663" height="198.663" fill="white" transform="translate(0.290039 0.375977)"/>
</clipPath>
</defs>
</svg>
