<svg width="200" height="200" viewBox="0 0 200 200" fill="none" xmlns="http://www.w3.org/2000/svg">
<g clip-path="url(#clip0_3_17082)">
<rect width="198.663" height="198.663" transform="translate(0.868164 0.375977)" fill="#FF9797"/>
<path d="M110.165 49.973C121.176 48.9232 137.68 61.6676 136.997 88.1573C136.215 118.578 160.361 106.615 160.361 130.053C144.248 144.848 41.1941 158.373 25.3003 141.918C25.5444 119.603 39.3142 118.041 49.8369 108.006C60.3595 97.9719 47.2733 39.8898 110.165 49.973Z" fill="#0064C8"/>
<path d="M103.255 40.1089C103.255 40.1089 109.871 45.2848 110.14 50.0212C112.142 46.0904 116.585 41.1099 116.585 41.1099" stroke="#0064C8" stroke-width="2.03851" stroke-miterlimit="10" stroke-linecap="round" stroke-linejoin="round"/>
<path d="M110.237 50.3867C110.579 52.3887 111.922 61.5442 109.725 68.1361" stroke="#0055A8" stroke-width="2.03851" stroke-miterlimit="10" stroke-linecap="round" stroke-linejoin="round"/>
<path d="M80.5994 78.1221C81.0144 77.3897 81.6248 76.7793 82.4305 76.6084C80.8435 76.8525 72.6403 78.3418 71.3707 82.3214C70.3453 83.9572 70.3209 86.2033 69.4908 88.01C67.7818 91.8186 62.8256 93.3568 61.141 97.1654C59.432 101.023 61.7514 105.515 61.1654 109.69C60.3109 115.696 53.7678 119.651 52.8401 125.657C52.5227 127.659 52.8889 129.71 52.7424 131.712C52.5715 133.885 51.8147 136.033 50.5451 137.816C49.3732 139.476 47.8107 140.794 46.2482 142.113C43.8311 144.163 41.4141 146.19 38.9971 148.241H40.0713C51.4241 148.265 62.6303 148.241 73.983 148.216C75.6188 148.216 77.3523 148.167 78.6706 147.264C78.8415 147.142 79.0124 147.02 79.1589 146.873C75.2526 146.117 72.3717 145.482 72.3717 145.482L72.5426 108.689C72.3717 108.713 72.1764 108.713 72.0055 108.713C67.5864 108.713 63.9975 104.563 63.9975 99.4116C63.9975 96.7015 64.9985 94.2601 66.5855 92.5755C69.564 89.3772 74.8864 90.4514 76.5466 94.4798C76.571 94.5286 76.5954 94.6019 76.6198 94.6507C76.9372 95.4564 78.1091 95.3832 78.3044 94.5287C78.9392 91.6722 79.0613 88.5959 79.2322 85.8127C79.3054 84.4943 79.3787 83.2247 79.5251 82.0773C79.6961 80.7345 79.9402 79.5381 80.3797 78.5616C80.4285 78.4639 80.4773 78.3663 80.5261 78.2686C80.5506 78.2198 80.575 78.1709 80.5994 78.1221Z" fill="#0055A8"/>
<path d="M82.48 76.6086C82.553 76.5843 82.6259 76.5843 82.7232 76.5843C82.6989 76.56 82.6259 76.5843 82.48 76.6086Z" fill="#0055A8"/>
<path d="M131.626 84.4943C132.139 88.2542 131.04 92.307 132.603 95.7494C133.555 97.8735 135.435 99.4604 136.289 101.633C137.852 105.588 135.703 110.496 137.876 114.158C139.634 117.137 143.516 118.015 145.909 120.481C147.642 122.288 148.448 124.852 148.374 127.366C148.301 129.881 147.398 132.298 146.055 134.422C141.905 141.063 134.067 144.408 126.426 145.75C124.131 146.141 121.689 146.385 119.59 145.384C116.025 143.699 114.78 139.232 114.56 135.252C114.096 127 116.245 118.846 119.028 111.057C120.81 106.052 122.91 101.072 123.496 95.7738C123.862 92.5023 123.667 89.2063 124.009 85.9348C124.253 83.7375 124.961 78.879 127.134 77.6094C129.404 76.3887 131.382 82.6388 131.626 84.4943Z" fill="#0055A8"/>
<path d="M223.45 174.927L213.391 227.394L211.12 228.956L199.621 236.818L178.307 214.039L177.697 213.38L179.992 249.806L106.089 296.438L30.5752 251.003L25.3993 223.902L21.3221 228.346L11.8248 238.673L0.911569 231.959L-16.1786 221.412L-23.1367 189.161C-23.1367 189.161 -16.2274 180.03 4.76904 155.322C35.5313 119.091 93.6379 162.158 138.219 133.373C182.8 104.589 223.45 174.927 223.45 174.927Z" fill="#5FAEF2"/>
<path d="M162.095 126.464C159.971 128.515 156.7 129.882 154.307 131.786C148.74 136.181 146.934 144.702 140.464 147.656C136.191 149.633 131.113 148.51 126.548 149.682C119.15 151.587 114.633 158.862 108.457 163.403C98.5931 170.654 83.6758 169.971 74.5448 161.792C70.5896 158.276 67.2937 153.369 62.0934 152.368C57.8697 151.562 53.2553 153.589 49.349 151.782C46.9564 150.683 45.3939 148.339 43.4895 146.508C41.1213 144.213 38.0939 142.626 34.8712 141.918C33.0889 141.528 30.4278 141.918 28.4746 141.332C60.3111 134.545 103.354 155.835 138.169 133.373C146.372 128.075 154.429 126.122 162.095 126.464Z" fill="#4598E0"/>
<path d="M25.4975 224.294C25.3999 224.464 25.2778 224.635 25.1313 224.855C24.7407 225.368 11.386 238.869 11.386 238.869L0.472656 232.155C1.0586 231.667 1.66896 231.203 2.32815 230.812C4.15924 229.714 6.21008 229.054 8.11441 228.029C9.99433 227.028 11.7766 225.539 12.4358 223.512C13.1194 221.364 12.4358 218.971 13.0705 216.823C13.9983 213.6 17.514 211.793 18.9056 208.766C20.4681 205.397 19.1742 201.442 20.6635 198.072C21.1762 196.925 21.7621 196.388 22.3969 196.241C22.4701 197.071 23.3246 212.575 25.4975 224.294Z" fill="#4598E0"/>
<path d="M22.4214 196.192C22.4214 196.192 23.105 211.769 25.3999 223.903" stroke="#1A1B16" stroke-width="1.95316" stroke-miterlimit="10" stroke-linecap="round" stroke-linejoin="round"/>
<path d="M176.062 196.192L177.698 213.38" stroke="#1A1B16" stroke-width="1.95316" stroke-miterlimit="10" stroke-linecap="round" stroke-linejoin="round"/>
<path d="M74.6689 152.392C74.6689 152.392 85.1916 158.178 96.935 157.666" stroke="#0064C8" stroke-width="1.95316" stroke-miterlimit="10" stroke-linecap="round" stroke-linejoin="round"/>
<path d="M82.9204 151.392C82.9204 151.392 89.2682 153.735 97.2761 153.98" stroke="#0064C8" stroke-width="1.95316" stroke-miterlimit="10" stroke-linecap="round" stroke-linejoin="round"/>
<path d="M127.917 104.172C128.356 129.905 117.101 133.372 117.101 133.372L116.93 145.067C116.93 145.067 107.408 149.217 96.3976 149.168C88.8046 149.144 72.3981 145.482 72.3981 145.482L72.569 108.689C72.3981 108.713 72.2028 108.713 72.0319 108.713C67.6128 108.713 64.0239 104.563 64.0239 99.4115C64.0239 96.7015 65.0249 94.2601 66.6119 92.5755C69.5904 89.3772 74.9128 90.4514 76.573 94.4798C76.5974 94.5286 76.6218 94.6019 76.6462 94.6507C76.9636 95.4564 78.1355 95.3831 78.3308 94.5286C78.9656 91.6721 79.0877 88.5959 79.2586 85.8126C79.3318 84.4943 79.4051 83.2247 79.5515 82.0772C79.7224 80.6612 79.991 79.416 80.4549 78.4395C81.0164 77.2431 82.2127 76.5107 83.5311 76.4619C90.4404 76.1933 101.427 73.2148 106.456 69.8211C106.847 69.5526 107.262 69.3817 107.701 69.2596C109.02 68.8934 110.46 69.1864 111.559 70.0897C112.316 70.7001 113.366 71.3593 114.562 72.0429C118.542 74.2402 124.206 76.4863 126.867 77.2187C128.356 77.6094 127.917 79.6846 127.892 81.1983C127.892 81.5157 127.892 81.8087 127.868 82.1505C127.868 82.2237 127.868 82.2725 127.868 82.3458C127.819 87.424 127.746 94.0647 127.917 104.172Z" fill="#F8934F"/>
<path d="M127.915 104.172C128.354 129.905 117.099 133.372 117.099 133.372L117.05 136.302L109.726 134.935C113.291 133.47 118.418 130.223 121.836 124.046C123.935 120.262 124.961 115.965 124.961 111.643V76.5596C125.693 76.8037 126.352 77.0234 126.865 77.1699C128.354 77.5606 127.915 79.6358 127.89 81.1495C127.89 81.4669 127.89 81.7598 127.866 82.1017C127.866 82.1749 127.866 82.2237 127.866 82.297C127.817 87.424 127.744 94.0648 127.915 104.172Z" fill="#F9AF79"/>
<path d="M80.966 147.216C80.2824 147.264 72.3965 145.482 72.3965 145.482L72.5186 109.153C73.3731 109.031 74.0078 109.178 74.0811 110.862C74.1787 113.06 73.7393 114.72 74.6182 116.844C75.1798 118.236 76.0342 119.359 76.4249 120.848C77.3526 124.266 75.6192 128.172 76.2296 131.737C76.962 136.009 80.7462 138.133 81.3078 142.479C81.4543 143.773 81.1857 145.922 80.966 147.216Z" fill="#F77C2D"/>
<path d="M75.3036 102.781C75.3036 102.781 71.5926 104.099 70.1033 101.047C68.5896 97.9957 71.0311 95.5542 71.0311 95.5542C71.8856 96.2622 72.6912 97.0191 73.3748 97.898C74.4735 99.2896 75.2792 100.999 75.3036 102.781Z" fill="#F77C2D"/>
<path d="M71.0303 95.5552C71.0303 95.5552 68.6133 97.9967 70.1026 101.048C71.5918 104.1 75.3028 102.782 75.3028 102.782C75.2784 101 74.4727 99.2906 73.3741 97.899C72.2754 96.5074 70.8594 95.3843 69.4189 94.3101" stroke="#BF3028" stroke-width="1.95316" stroke-miterlimit="10" stroke-linecap="round" stroke-linejoin="round"/>
<path d="M95.543 133.689C95.543 133.689 109.41 136.839 117.101 133.348C117.077 135.618 117.028 139.183 117.028 139.183C117.028 139.183 106.554 140.745 95.543 133.689Z" fill="#BF3028"/>
<path d="M72.5674 108.689C72.5674 108.689 74.1543 108.934 75.7413 108.519" stroke="#BF3028" stroke-width="1.95316" stroke-miterlimit="10" stroke-linecap="round" stroke-linejoin="round"/>
<path d="M107.702 69.2354C105.773 71.8721 103.088 73.9473 100.06 75.1192C98.0829 75.9005 95.9588 76.3155 94.1033 77.341C91.906 78.5861 90.2458 80.6369 87.9752 81.7356C85.9733 82.7121 83.6539 82.8586 81.6763 83.8596C80.7485 84.3235 79.9185 85.0071 79.2593 85.8128C79.3325 84.4944 79.4058 83.2249 79.5522 82.0774C79.7231 80.6613 79.9917 79.4162 80.4556 78.4396C81.0171 77.2433 82.2134 76.5109 83.5318 76.462C90.4411 76.1935 101.428 73.2149 106.457 69.8213C106.848 69.5283 107.263 69.3574 107.702 69.2354Z" fill="#F77C2D"/>
<path d="M118.858 97.8496C118.882 98.9727 119.297 99.7784 120.127 99.754C120.957 99.7296 121.616 98.8262 121.592 97.7032C121.568 96.5801 120.86 95.7012 120.029 95.7256C119.199 95.7256 118.833 96.751 118.858 97.8496Z" fill="#1A1B16"/>
<path d="M104.794 116.796C104.794 116.796 107.187 113.134 111.582 112.377C115.976 111.62 115.39 113.988 115.39 113.988C115.39 113.988 115.293 116.723 111.386 117.284C107.48 117.821 104.794 116.796 104.794 116.796Z" fill="#F77C2D"/>
<path d="M112.285 123.361C113.244 123.207 113.943 122.596 113.847 121.997C113.75 121.398 112.895 121.037 111.937 121.191C110.978 121.345 110.279 121.956 110.376 122.555C110.472 123.154 111.327 123.515 112.285 123.361Z" fill="#F77C2D"/>
<path d="M94.8341 98.0454C94.8585 99.2417 95.298 100.096 96.1769 100.072C97.0558 100.047 97.7883 99.0708 97.7394 97.8745C97.715 96.6782 96.9581 95.726 96.0792 95.7505C95.2003 95.7749 94.8097 96.8491 94.8341 98.0454Z" fill="#1A1B16"/>
<path d="M108.798 108.617C110.556 109.423 114.609 104.906 112.778 102.855C111.801 101.781 104.55 106.688 108.798 108.617Z" fill="#F77C2D"/>
<path d="M109.63 108.934L111.706 107.078C113 105.907 113.463 104.075 112.878 102.44L107.995 91.2334" stroke="#BF3028" stroke-width="1.95316" stroke-miterlimit="10" stroke-linecap="round" stroke-linejoin="round"/>
<path d="M104.794 117.259C104.794 117.259 112.143 112.791 115.439 114.207" stroke="#BF3028" stroke-width="1.95316" stroke-miterlimit="10" stroke-linecap="round" stroke-linejoin="round"/>
<path d="M92.0264 86.4736C92.0264 86.4736 96.2501 84.618 100.523 85.1796" stroke="#1A1B16" stroke-width="1.95316" stroke-miterlimit="10" stroke-linecap="round" stroke-linejoin="round"/>
<path d="M115.855 84.8371C115.855 84.8371 119.298 84.0802 122.911 84.8615" stroke="#1A1B16" stroke-width="1.95316" stroke-miterlimit="10" stroke-linecap="round" stroke-linejoin="round"/>
<path d="M74.8887 91.77L87.8284 96.067" stroke="#C9CEEF" stroke-width="1.95316" stroke-miterlimit="10" stroke-linecap="round" stroke-linejoin="round"/>
<path d="M105.04 95.5547C107.628 92.9668 111.852 92.9668 114.44 95.5547" stroke="#C9CEEF" stroke-width="1.95316" stroke-miterlimit="10" stroke-linecap="round" stroke-linejoin="round"/>
<path d="M105.456 98.2644C105.456 103.196 101.452 107.2 96.5202 107.2C96.4225 107.2 96.3004 107.2 96.2028 107.2C91.4175 107.029 87.5845 103.098 87.5845 98.2644C87.5845 95.7497 88.6099 93.5036 90.2701 91.8678C91.8814 90.3053 94.0787 89.3287 96.5202 89.3287C101.452 89.3043 105.456 93.3083 105.456 98.2644Z" stroke="#EDE3EB" stroke-width="1.95316" stroke-miterlimit="10" stroke-linecap="round" stroke-linejoin="round"/>
<path d="M132.069 98.2644C132.069 103.196 128.065 107.2 123.133 107.2C123.011 107.2 122.889 107.2 122.767 107.2C122.425 107.2 122.108 107.151 121.79 107.102C117.933 106.517 114.881 103.465 114.295 99.6072C114.222 99.1678 114.197 98.7283 114.197 98.2644C114.197 95.7741 115.223 93.5036 116.858 91.8922C118.47 90.3053 120.692 89.3287 123.133 89.3287C128.065 89.3043 132.069 93.3083 132.069 98.2644Z" stroke="#EDE3EB" stroke-width="1.95316" stroke-miterlimit="10" stroke-linecap="round" stroke-linejoin="round"/>
</g>
<defs>
<clipPath id="clip0_3_17082">
<rect width="198.663" height="198.663" fill="white" transform="translate(0.868164 0.375977)"/>
</clipPath>
</defs>
</svg>
