<svg width="200" height="200" viewBox="0 0 200 200" fill="none" xmlns="http://www.w3.org/2000/svg">
<g clip-path="url(#clip0_3_17133)">
<rect width="198.663" height="198.663" transform="translate(0.579102 0.375977)" fill="#7AC7FF"/>
<path d="M73.9646 48.5437C74.7651 47.8965 74.3988 46.1472 73.1463 44.6366C71.8939 43.126 70.2296 42.4261 69.429 43.0733C68.6285 43.7205 68.9948 45.4697 70.2473 46.9803C71.4997 48.4909 73.164 49.1909 73.9646 48.5437Z" fill="#D6261D"/>
<path d="M118.09 55.6734L82.5588 91.2329C82.5588 91.2329 71.7094 95.5623 64.5857 89.4823C62.2889 87.4846 60.5083 84.9626 59.3956 82.1312C55.604 72.7109 57.9414 58.7238 73.4106 46.2537C80.2115 40.772 86.2339 38.2744 91.4762 37.6869C109.258 35.6942 118.09 55.6734 118.09 55.6734Z" fill="#F52A21"/>
<path d="M91.0858 37.7052C88.1267 43.0505 81.8614 42.4453 77.9513 46.2651C76.3545 47.8257 75.5577 50.1291 73.801 51.5011C72.5698 52.4628 71.0109 52.8561 69.6439 53.6192C68.1291 54.4761 66.9046 55.775 66.1296 57.3469C65.4631 58.7006 65.1643 60.2031 64.8683 61.6844C64.0245 65.9145 63.1787 70.1476 62.6418 74.429C62.4146 76.247 62.225 78.128 61.3557 79.7338C60.8133 80.7371 60.032 81.5808 59.2345 82.4109C55.4741 72.9398 57.7977 58.8739 73.154 46.3275C79.9051 40.8123 85.8829 38.2982 91.0858 37.7052Z" fill="#F65852"/>
<path d="M267.754 134.642L227.512 210.503C221.164 222.468 205.714 226.365 194.302 218.877L156.166 193.846L141.006 257.584L79.0015 249.461L75.0422 251.18C70.5338 252.74 65.6732 253.034 61.0023 252.027C56.3314 251.02 52.0339 248.752 48.589 245.477L1.72531 239.338L16.5093 185.43L12.6309 175.463L8.26462 164.238C3.64795 147.958 16.767 128.318 33.8592 127.472L61.6346 126.097L78.4103 125.266L133.8 124.276C147.438 124.035 160.648 129.012 170.665 138.165L202.273 167.049L222.53 114.043C223.111 115.076 224.336 116.087 226.405 116.915C227.902 117.508 229.348 118.221 230.727 119.047C238.096 123.497 239.168 129.134 243.43 131.229C250.615 134.76 254.486 132.058 258.677 133.522C259.047 133.651 259.406 133.807 259.753 133.989C263.833 136.124 266.19 136.934 267.754 134.642Z" fill="#0064C8"/>
<path d="M23.2033 244.749C23.6147 242.763 24.1651 240.792 23.9644 238.787C23.4557 233.696 18.3705 230.116 17.3879 225.088C16.7139 221.644 18.0869 218.138 18.1055 214.625C18.1219 210.616 16.3797 206.842 15.0052 203.077C14.4267 201.532 13.9421 199.953 13.554 198.348L16.2485 188.358C16.4273 188.245 16.6213 188.14 16.8133 188.039L43.6104 242.026C44.8436 244.273 46.4035 246.322 48.2383 248.104L23.2033 244.749Z" fill="#0055A8"/>
<path d="M60.3088 126.899C57.2642 128.762 53.8642 129.966 50.3267 130.435C45.848 131.022 40.933 130.481 37.1701 132.993C34.5473 134.749 32.9696 137.727 30.4616 139.647C28.0359 141.503 24.9107 142.233 22.4235 144.007C18.1442 147.057 16.481 152.616 15.8492 157.844C15.2174 163.072 15.3109 168.495 13.3694 173.384C12.9088 174.538 12.3104 175.632 11.5873 176.642L7.25874 165.321C2.68533 148.903 15.7317 129.108 32.7103 128.264L60.3088 126.899Z" fill="#0F70D1"/>
<path d="M77.417 126.314C77.417 126.314 66.4074 135.417 74.4775 140.491C82.5476 145.565 97.4967 138.906 102.979 132.654C102.979 132.654 116.841 142.458 125.27 137.499C132.02 133.525 118.034 127.867 118.034 127.867" stroke="#173F80" stroke-width="1.3211" stroke-linecap="round" stroke-linejoin="round"/>
<path d="M97.4801 178.602C97.4801 178.602 105.732 152.743 103.105 133.027" stroke="#173F80" stroke-width="1.3211" stroke-linecap="round" stroke-linejoin="round"/>
<path d="M106.069 162.804C106.576 162.871 107.04 162.516 107.107 162.01C107.174 161.504 106.818 161.039 106.311 160.972C105.805 160.904 105.34 161.26 105.273 161.766C105.206 162.272 105.562 162.737 106.069 162.804Z" fill="#1A1B16"/>
<path d="M104.232 172.897C104.739 172.965 105.203 172.609 105.27 172.103C105.337 171.597 104.981 171.132 104.474 171.065C103.968 170.998 103.503 171.353 103.436 171.859C103.369 172.365 103.726 172.83 104.232 172.897Z" fill="#1A1B16"/>
<path d="M81.691 116.795C81.691 116.795 77.525 122.341 73.7542 119.852C69.9835 117.364 75.0269 110.121 75.0269 110.121C75.0269 110.121 71.1516 117.026 66.8754 113.479C62.5991 109.932 74.1735 101.611 74.2733 95.8365C74.3731 90.0616 66.2785 68.203 72.1449 58.2368C77.6363 48.9083 85.6544 50.1533 85.6544 50.1533C85.6544 50.1533 90.5927 37.4494 103.511 42.6554C109.682 35.5641 123.919 33.1904 126.43 46.5676C134.184 43.6508 143.29 62.8777 123.6 69.4586C103.91 76.0395 81.691 116.795 81.691 116.795Z" fill="#FACC73"/>
<path d="M116.69 36.9694C115.682 37.8846 114.736 38.8668 113.859 39.9095C111.478 42.6872 109.237 45.7375 106.048 47.5182C103.801 48.766 101.229 49.2982 98.6734 49.0444C97.4461 48.9212 96.1999 48.6172 94.9939 48.881C91.8027 49.5829 90.7024 53.6107 88.1483 55.6562C85.5413 57.7424 81.6951 57.5368 78.9553 59.4469C75.7289 61.7023 74.9955 66.1092 74.5369 70.0351C74.3103 71.9836 74.0618 82.7729 72.1625 86.4397C70.2055 77.4523 67.665 65.0408 71.6958 58.2133C77.1979 48.8916 85.2258 50.1326 85.2258 50.1326C85.2258 50.1326 90.1753 37.4389 103.108 42.6355C106.36 38.9125 111.853 36.4809 116.69 36.9694Z" fill="#F9BD64"/>
<path d="M83.8958 54.1584C83.8958 54.1584 84.1105 52.7693 84.947 50.139" stroke="#BF3028" stroke-width="1.3211" stroke-linecap="round" stroke-linejoin="round"/>
<path d="M102.987 42.281C102.245 43.2452 101.57 44.2605 100.965 45.3194" stroke="#BF3028" stroke-width="1.3211" stroke-linecap="round" stroke-linejoin="round"/>
<path d="M126.349 45.825C126.349 45.825 125.8 48.2411 124.56 49.7332" stroke="#BF3028" stroke-width="1.3211" stroke-linecap="round" stroke-linejoin="round"/>
<path d="M80.3405 83.9671L79.7227 77.3989" stroke="#BF3028" stroke-width="1.3211" stroke-linecap="round" stroke-linejoin="round"/>
<path d="M117.072 118.221L117.128 120.296L117.315 127.392C114.992 129.221 111.06 132.07 102.41 132.228C88.8868 132.477 77.1336 125.714 77.1336 125.714L76.6097 100.038C73.9887 99.3217 71.6662 97.1978 70.637 94.213C69.251 90.2172 70.6264 86.0069 73.7254 84.0757L73.7396 84.0677C73.987 83.9362 77.4209 82.2326 80.8846 83.8525C81.4783 90.449 82.5212 98.0541 83.1388 102.319C83.2633 103.168 83.6895 103.944 84.3391 104.504C84.9886 105.063 85.8177 105.37 86.6736 105.366C87.5295 105.362 88.3546 105.048 88.997 104.483C89.6393 103.917 90.0556 103.138 90.1693 102.288C90.2013 102.04 90.2078 101.79 90.1885 101.541C90.1885 101.541 88.773 82.8707 88.2413 75.665C98.2624 76.5266 112.042 73.255 119.213 71.2271C121.871 70.4751 123.621 69.8911 123.939 69.7493C124.061 70.5329 124.196 71.4072 124.339 72.3534C124.335 72.3858 128.025 98.7193 127.103 105.734C125.798 115.603 117.072 118.221 117.072 118.221Z" fill="#F8934F"/>
<path d="M114.776 72.0704C107.698 77.5005 93.68 79.9511 88.2105 80.7283C88.0493 78.6523 87.906 76.7898 87.7958 75.3767C96.1707 76.0672 107.137 73.9592 114.776 72.0704Z" fill="#F77C2D"/>
<path d="M117.282 117.997L117.338 120.087L104.302 119.848C104.891 119.808 121.235 117.264 123.971 106.748C126.748 96.0805 122.469 75.937 121.195 70.1171C123.819 69.3569 123.719 69.3118 124.032 69.1752C124.153 69.9644 124.286 70.8449 124.428 71.7979C124.424 71.8305 124.438 71.8638 124.442 71.8943C125.867 81.4596 128.079 98.3409 127.172 105.407C125.895 115.351 117.282 117.997 117.282 117.997Z" fill="#F9AF79"/>
<path d="M86.1091 130.142C80.6968 128.325 77.1693 126.24 77.1693 126.24L76.6499 100.418C76.5494 100.389 76.4504 100.361 76.3505 100.327C77.5073 100.298 78.9476 100.632 79.3664 101.472C79.9078 102.561 79.1214 104.294 79.7729 105.626C80.0766 106.248 80.5031 106.803 80.7739 107.44C82.0747 110.498 79.4476 114.234 80.8209 117.26C81.5049 118.768 83.0132 119.671 84.1971 120.815C85.8879 122.446 86.9977 124.766 86.9256 127.132C86.8872 128.187 86.6077 129.217 86.1091 130.142V130.142Z" fill="#F77C2D"/>
<path d="M79.9755 94.1991C79.9755 94.1991 77.0042 95.6226 75.4862 93.204C73.9681 90.7855 75.7737 88.5353 75.7737 88.5353C76.5542 89.0425 77.2799 89.6294 77.9392 90.2867C78.9885 91.3595 79.7963 92.7159 79.9755 94.1991Z" fill="#F77C2D"/>
<path d="M75.7663 88.5398C75.7663 88.5398 73.9549 90.7863 75.4787 93.2056C77.0024 95.6249 79.9707 94.2016 79.9707 94.2016C79.7916 92.7177 78.9815 91.3619 77.9364 90.2905C76.8912 89.219 75.6148 88.4029 74.3242 87.644" stroke="#BF3028" stroke-width="1.3211" stroke-linecap="round" stroke-linejoin="round"/>
<path d="M100.328 119.639C100.328 119.639 108.715 121.483 117.607 118.293L117.659 123.938C117.659 123.938 109.252 126.181 100.328 119.639Z" fill="#BF3028"/>
<path d="M76.3159 100.413C76.3159 100.413 77.3165 100.932 80.8101 100.942" stroke="#BF3028" stroke-width="1.3211" stroke-linecap="round" stroke-linejoin="round"/>
<path d="M104.873 88.9028C104.967 89.7589 104.744 90.4123 104.107 90.4836C103.47 90.5548 102.871 89.918 102.783 89.0644C102.695 88.2108 103.126 87.4599 103.764 87.3805C104.402 87.3011 104.777 88.0481 104.873 88.9028Z" fill="#1A1B16"/>
<path d="M116.16 93.4865C117.742 94.356 114.289 98.609 112.524 97.3629C110.76 96.1169 114.6 92.6331 116.16 93.4865Z" fill="#F77C2D"/>
<path d="M122.62 86.7481C122.709 87.5473 122.499 88.1595 121.903 88.2264C121.308 88.2934 120.754 87.6974 120.664 86.9047C120.575 86.112 120.986 85.403 121.58 85.3358C122.173 85.2687 122.529 85.9536 122.62 86.7481Z" fill="#1A1B16"/>
<path d="M114.746 83.2334C115.35 84.9777 116.735 90.4482 116.902 92.5768C117.023 94.1789 115.503 96.1001 114.461 97.0987" stroke="#BF3028" stroke-width="1.3211" stroke-linecap="round" stroke-linejoin="round"/>
<path d="M100.096 84.8713L106.036 84.2236" stroke="#1A1B16" stroke-width="1.3211" stroke-linecap="round" stroke-linejoin="round"/>
<path d="M118.847 82.4571L123.278 81.9735" stroke="#1A1B16" stroke-width="1.3211" stroke-linecap="round" stroke-linejoin="round"/>
<path d="M110.149 104.934L117.927 103.261" stroke="#BF3028" stroke-width="1.3211" stroke-linecap="round" stroke-linejoin="round"/>
<path d="M115.084 108.776C116.036 108.57 116.725 107.999 116.623 107.502C116.521 107.005 115.666 106.769 114.713 106.976C113.761 107.182 113.072 107.752 113.174 108.249C113.277 108.746 114.132 108.982 115.084 108.776Z" fill="#F77C2D"/>
</g>
<defs>
<clipPath id="clip0_3_17133">
<rect width="198.663" height="198.663" fill="white" transform="translate(0.579102 0.375977)"/>
</clipPath>
</defs>
</svg>
