<svg width="199" height="200" viewBox="0 0 199 200" fill="none" xmlns="http://www.w3.org/2000/svg">
<g clip-path="url(#clip0_3_17172)">
<rect width="198.663" height="198.663" transform="translate(0.157227 0.375977)" fill="#98C1FF"/>
<path d="M322.477 108.424L316.506 233.094C315.089 254.987 294.942 271.143 272.75 268.164L264.558 266.6L259.298 265.595L228.696 259.762L223.436 258.756L205.698 255.355C205.698 255.355 215.776 282.054 224.014 299.147C208.006 302.387 191.222 313.035 173.138 322.225C172.804 322.393 172.491 322.557 172.158 322.726C171.845 322.889 171.548 323.027 171.235 323.191C170.88 323.365 170.526 323.538 170.172 323.712C169.582 324.009 169.009 324.279 168.42 324.576C167.987 324.791 167.534 325.01 167.075 325.21C166.444 325.517 165.808 325.803 165.178 326.11C148.283 333.967 130.256 339.545 110.663 336.079C66.5413 328.278 42.3016 343.316 42.3016 343.316L30.5345 350.087C0.566656 367.333 -37.975 354.997 -51.6986 323.797L-73.4669 282.804L-74.0279 281.728L-77.1762 275.782L-77.4412 275.262L-96.2014 239.923L-66.4944 219.294L-60.1692 214.901L-59.4339 214.395L-17.1883 266.614L-14.8214 229.011C-12.604 193.872 13.0473 164.334 48.1119 156.521L151.842 133.42C174.749 128.312 198.73 133.973 216.733 148.711L241.063 168.656L245.762 172.509L259.098 183.43L275.874 105.417L290.459 106.342L295.86 106.684L322.477 108.424Z" fill="#EDE3EB"/>
<path d="M19.8999 162.533L16.9049 181.131L16.0534 186.402L11.1217 217.005L10.2701 222.277L5.33838 252.88L4.48679 258.151L-0.444895 288.754L-1.29649 294.025L-6.22818 324.628L-7.07978 329.9L-11.2964 356.09C-12.9806 355.669 -14.627 355.149 -16.2698 354.561L-12.1502 328.974L-11.2986 323.703L-6.36692 293.1L-5.51533 287.829L-0.583645 257.226L0.26795 251.954L5.19964 221.351L6.05124 216.08L10.9829 185.477L11.8345 180.206L13.9923 166.853C15.8647 165.314 17.8489 163.877 19.8999 162.533Z" fill="#C9CEEF"/>
<path d="M54.2659 151.181L59.6937 149.811L59.2266 152.735L58.3751 158.006L53.4437 188.605L52.5922 193.875L47.6609 224.474L46.8093 229.744L41.878 260.343L41.0265 265.614L36.0951 296.212L35.2436 301.483L30.3123 332.081L29.4607 337.352L26.8001 353.814C24.9683 354.698 23.1039 355.458 21.207 356.095L24.3886 336.427L25.2401 331.157L30.1715 300.558L31.023 295.287L35.9543 264.689L36.8059 259.418L41.7372 228.82L42.5887 223.549L47.5201 192.95L48.3716 187.68L53.3029 157.081L54.1545 151.811L54.2659 151.181Z" fill="#C9CEEF"/>
<path d="M93.67 143.057L99.118 141.682L96.1269 160.209L95.2753 165.48L90.3441 196.077L89.4925 201.348L84.5613 231.945L83.7097 237.216L78.7785 267.813L77.927 273.084L72.9957 303.681L72.1442 308.952L67.671 336.672C65.7341 337.076 63.9181 337.534 62.232 338.001L67.0717 308.027L67.9232 302.757L72.8545 272.159L73.706 266.889L78.6373 236.291L79.4888 231.021L84.42 200.423L85.2716 195.153L90.2028 164.555L91.0544 159.285L93.67 143.057Z" fill="#C9CEEF"/>
<path d="M138.113 133.536L137.54 137.111L132.609 167.713L131.757 172.985L126.825 203.587L125.974 208.858L121.042 239.46L120.191 244.732L115.259 275.334L114.407 280.605L109.476 311.207L108.624 316.479L105.396 336.538C103.641 336.337 101.917 336.171 100.249 336.056L103.553 315.554L104.405 310.282L109.337 279.68L110.188 274.409L115.12 243.807L115.971 238.535L120.903 207.933L121.755 202.662L126.686 172.06L127.538 166.788L132.469 136.186L132.667 134.911L138.113 133.536Z" fill="#C9CEEF"/>
<path d="M170.929 130.226C172.656 130.324 174.36 130.496 176.06 130.735L174.675 139.326L173.823 144.597L168.892 175.201L168.04 180.472L163.108 211.075L162.257 216.347L157.325 246.95L156.474 252.222L151.542 282.825L150.69 288.096L145.758 318.7L144.907 323.971L142.701 337.626C140.925 338.073 139.113 338.464 137.305 338.787L139.842 323.067L140.694 317.795L145.625 287.192L146.477 281.92L151.409 251.317L152.26 246.046L157.192 215.442L158.044 210.171L162.975 179.568L163.827 174.296L168.759 143.693L169.61 138.421L170.929 130.226Z" fill="#C9CEEF"/>
<path d="M211.15 145.688L210.969 146.781L210.117 152.053L205.185 182.658L204.328 187.91L199.396 218.515L198.545 223.787L193.613 254.392L192.761 259.664L187.829 290.269L186.978 295.541L182.804 321.41C180.908 322.534 178.987 323.643 177.061 324.731L181.888 294.621L182.74 289.349L187.672 258.744L188.524 253.472L193.455 222.867L194.307 217.595L199.239 186.99L200.091 181.718L205.022 151.113L205.874 145.841L206.426 142.427C208.052 143.441 209.616 144.538 211.15 145.688Z" fill="#C9CEEF"/>
<path d="M221.135 294.151C221.839 295.592 222.542 297.032 223.25 298.407C222.206 298.628 221.167 298.87 220.118 299.158L220.099 299.249L219.911 299.21L214.847 298.313L184.236 292.926L178.943 292.001L148.333 286.613L143.06 285.683L112.45 280.295L107.177 279.365L76.5673 273.977L71.2947 273.047L40.6845 267.659L35.4119 266.729L4.80169 261.341L-0.470936 260.411L-17.1214 257.486L-16.8762 252.243L0.451117 255.299L5.72375 256.229L36.3339 261.617L41.6065 262.547L72.2057 267.894L77.4783 268.824L108.088 274.212L113.361 275.142L143.971 280.53L149.244 281.46L179.854 286.848L185.127 287.778L215.737 293.166L221.01 294.096L221.135 294.151Z" fill="#C9CEEF"/>
<path d="M205.43 253.731C205.43 253.731 207.287 258.334 207.747 259.448L191.651 256.602L186.38 255.672L155.776 250.289L150.505 249.36L119.901 243.977L114.63 243.048L84.0265 237.665L78.755 236.735L48.1515 231.353L42.88 230.423L12.2765 225.04L7.00506 224.111L-13.7115 220.451C-13.4344 218.718 -13.0788 217.03 -12.7025 215.337L7.91481 218.957L13.1863 219.887L43.7898 225.27L49.0612 226.199L79.6648 231.582L84.9362 232.511L115.54 237.894L120.811 238.824L151.415 244.206L156.686 245.136L187.29 250.519L192.561 251.448L205.43 253.731Z" fill="#C9CEEF"/>
<path d="M315.951 237.82C315.565 239.558 315.067 241.216 314.45 242.839L306.875 241.498L301.601 240.567L270.984 235.173L265.71 234.242L235.093 228.849L229.819 227.918L199.201 222.524L193.927 221.593L163.31 216.2L158.036 215.268L127.419 209.875L122.145 208.944L91.5272 203.55L86.2534 202.619L55.6359 197.226L50.362 196.295L19.7446 190.901L14.4707 189.97L1.80925 187.736C3.00821 186.138 4.24441 184.595 5.56473 183.117L15.3942 184.859L20.668 185.79L51.2855 191.184L56.5593 192.115L87.1768 197.508L92.4507 198.439L123.068 203.833L128.342 204.764L158.959 210.157L164.233 211.089L194.851 216.482L200.125 217.413L230.742 222.807L236.016 223.738L266.633 229.131L271.907 230.062L302.525 235.456L307.799 236.387L315.951 237.82Z" fill="#C9CEEF"/>
<path d="M318.916 201.735L318.762 206.995L314.372 206.227L309.096 205.294L278.469 199.893L273.194 198.961L242.567 193.56L237.292 192.627L206.659 187.206L201.384 186.273L170.757 180.872L165.482 179.94L134.855 174.539L129.579 173.606L98.9525 168.205L93.677 167.273L63.0502 161.872L57.7748 160.939L44.5729 158.601C46.0873 158.153 47.6182 157.767 49.1546 157.4L57.2519 155.549L58.689 155.79L63.9645 156.722L94.5913 162.123L99.8668 163.056L130.494 168.457L135.769 169.389L166.396 174.79L171.671 175.723L202.298 181.124L207.574 182.056L238.2 187.457L243.476 188.39L274.103 193.791L279.378 194.723L310.005 200.124L315.28 201.057L318.916 201.735Z" fill="#C9CEEF"/>
<path d="M225.734 153.047L214.137 150.994L208.861 150.062L178.237 144.662L172.962 143.73L142.337 138.331L137.062 137.399L134.136 136.887L137.276 136.158L142.956 134.852L147.157 133.877L173.881 138.6L179.156 139.532L209.781 144.932L215.056 145.864L217.17 146.236C217.559 146.526 217.927 146.821 218.322 147.131L225.734 153.047Z" fill="#C9CEEF"/>
<path d="M187.603 200.963L206.916 261.269" stroke="#1A1B16" stroke-width="2.06851" stroke-miterlimit="10" stroke-linecap="round" stroke-linejoin="round"/>
<path d="M95.1529 162.076C95.1529 162.076 99.5281 253.859 131.018 338.92" stroke="#1A1B16" stroke-width="2.06851" stroke-miterlimit="10" stroke-linecap="round" stroke-linejoin="round"/>
<path d="M68.9787 78.1626L70.9048 60.582C71.8934 53.5782 77.3308 47.859 84.1019 45.673L120.634 43.6983C128.238 44.8972 137.871 51.1384 137.746 65.91L136.83 93.6534L99.9224 98.5984L68.9787 78.1626Z" fill="#FACC73"/>
<path d="M87.633 66.501C90.6313 66.768 104.598 66.7772 107.613 66.697C109.09 66.6648 110.61 66.793 112.057 66.4897C113.504 66.1864 114.961 65.345 115.434 63.9821C115.932 62.5485 115.153 60.9034 113.941 59.9471C112.728 58.9909 111.148 58.5567 109.61 58.2829C106.275 57.6729 102.873 57.5515 99.5066 57.8066C96.5088 58.0324 81.0987 57.3612 78.4641 58.8447C72.1665 62.3514 85.2282 66.2976 87.633 66.501Z" fill="#F9BD64"/>
<path d="M137.756 70.7512L137.099 91.825C136.089 90.5811 135.079 89.3372 134.089 88.0877C132.859 86.5736 131.571 84.9208 131.354 82.9456C131.175 81.3583 131.69 79.6428 131.032 78.1897C130.39 76.7983 128.904 76.1082 127.656 75.263C125.646 73.8788 122.341 70.4014 124.483 67.7874C126.399 65.4579 131.345 67.9225 133.637 68.5858C134.816 68.9194 136.031 69.3093 137.016 70.051C137.291 70.2838 137.541 70.5016 137.756 70.7512Z" fill="#F9BD64"/>
<path d="M137.532 98.1096C136.389 101.59 133.839 104.176 130.901 105.299L129.063 156.711L71.727 156.28C71.727 156.28 75.1589 134.311 75.256 127.005C64.0233 121.246 66.2227 91.1225 68.4162 74.1762C68.6554 72.3335 68.8897 70.646 69.1141 69.1811C69.1141 69.1811 90.7044 80.7908 116.268 64.2882C118.715 64.9624 118.494 65.0408 120.472 65.7683C120.294 67.5073 120.092 69.9345 119.952 72.6977C119.682 78.3534 119.724 85.4257 121.025 90.8792C121.387 92.4144 123.529 92.5723 124.099 91.0854C124.632 89.7177 125.222 88.3135 126.137 87.1565C128.367 84.3444 132.558 84.2 135.115 86.7155C137.869 89.4011 138.957 93.831 137.532 98.1096Z" fill="#F8934F"/>
<path d="M82.8443 129.492L74.7096 130.268L74.9745 126.959C74.9745 126.959 74.9288 126.948 74.8326 126.906C74.8432 126.77 74.8385 126.661 74.8491 126.525C63.8098 120.653 66.1244 90.2249 68.3688 73.1117C68.6135 71.2509 68.9539 69.6098 69.1771 68.1097C69.1771 68.1097 69.263 68.1986 70.7623 68.8798L69.188 93.3909C68.7353 98.2574 68.8933 111.536 70.7806 116.002C73.8606 123.293 79.1275 127.47 82.8443 129.492Z" fill="#F9AF79"/>
<path d="M130.796 106.01L129.304 147.613C124.325 150.818 119.13 153.683 113.402 154.945C111.595 155.34 109.562 155.528 108.047 154.462C106.64 153.479 106.055 151.583 106.279 149.854C106.483 148.13 107.386 146.58 108.393 145.179C109.801 143.28 111.503 141.593 113.431 140.199C115.046 139.04 116.872 138.024 117.884 136.293C119.398 133.685 118.534 130.319 119.477 127.439C120.855 123.238 125.886 120.768 126.472 116.373C127.088 111.75 122.981 105.846 130.379 105.918C130.523 105.969 130.662 106 130.796 106.01Z" fill="#F77C2D"/>
<path d="M125.856 98.2208C125.856 98.2208 129.304 100.257 131.408 97.5199C133.512 94.783 131.562 91.8901 131.562 91.8901C130.566 92.4173 129.612 93.0201 128.738 93.7539C127.349 94.9298 126.233 96.4674 125.856 98.2208Z" fill="#F77C2D"/>
<path d="M131.603 91.9218C131.603 91.9218 133.557 94.8074 131.442 97.5327C129.327 100.258 125.869 98.2248 125.869 98.2248C126.25 96.4776 127.392 94.941 128.787 93.7706C130.183 92.6003 131.828 91.7759 133.462 90.9974" stroke="#BF3028" stroke-width="2.06851" stroke-miterlimit="10" stroke-linecap="round" stroke-linejoin="round"/>
<path d="M74.5621 126.917C74.5621 126.917 81.4581 131.291 92.5875 130.65C105.294 129.93 111.516 123.917 111.516 123.917C111.516 123.917 102.67 137.361 73.5686 136.586C74.2268 131.205 74.5621 126.917 74.5621 126.917Z" fill="#BF3028"/>
<path d="M127.144 106.414C127.144 106.414 129.384 106.855 131.485 105.842" stroke="#BF3028" stroke-width="2.06851" stroke-miterlimit="10" stroke-linecap="round" stroke-linejoin="round"/>
<path d="M84.6374 94.4653C85.0865 92.3898 92.5177 94.3952 90.4301 97.3918C89.4518 98.8072 84.0208 97.3026 84.6374 94.4653Z" fill="#F77C2D"/>
<path d="M96.4156 89.2038C96.4522 90.1595 96.7888 90.8562 97.519 90.8287C98.229 90.8068 98.7936 89.9913 98.757 89.0356C98.7204 88.0799 98.1236 87.302 97.3988 87.3499C96.6834 87.3513 96.3736 88.2277 96.4156 89.2038Z" fill="#1A1B16"/>
<path d="M76.4941 87.2176C76.5253 88.1528 76.8712 88.803 77.561 88.7867C78.2454 88.7501 78.7804 87.9866 78.7493 87.0514C78.7181 86.1161 78.1376 85.3995 77.4478 85.4158C76.7634 85.4524 76.463 86.2823 76.4941 87.2176Z" fill="#1A1B16"/>
<path d="M105.834 80.407C102.63 79.0633 99.1265 78.6211 95.7417 79.1514" stroke="#1A1B16" stroke-width="2.06851" stroke-miterlimit="10" stroke-linecap="round" stroke-linejoin="round"/>
<path d="M81.6049 78.0081C78.993 77.2853 76.2468 77.119 73.5815 77.5664" stroke="#1A1B16" stroke-width="2.06851" stroke-miterlimit="10" stroke-linecap="round" stroke-linejoin="round"/>
<path d="M89.3794 97.7305L87.2558 97.3049C85.6706 96.9947 84.5938 95.4073 84.8343 93.7385L86.3636 82.9677" stroke="#BF3028" stroke-width="2.06851" stroke-miterlimit="10" stroke-linecap="round" stroke-linejoin="round"/>
<path d="M86.3865 103.978C88.9208 104.502 92.631 103.89 96.5355 100.393" stroke="#BF3028" stroke-width="2.06851" stroke-miterlimit="10" stroke-linecap="round" stroke-linejoin="round"/>
<path d="M93.8981 108.583C95.1379 108.05 95.93 107.152 95.6675 106.576C95.4049 106 94.1871 105.965 92.9474 106.497C91.7076 107.029 90.9155 107.928 91.178 108.504C91.4406 109.08 92.6584 109.115 93.8981 108.583Z" fill="#F77C2D"/>
<path d="M131.787 131.578L95.4036 153.547L57.9338 135.186C52.0278 150.963 52.491 168.114 59.2275 183.301L95.6113 161.332L133.081 179.693C139.008 163.91 138.545 146.76 131.787 131.578Z" fill="#0064C8"/>
<path d="M71.3223 151.894L89.3088 155.813" stroke="#173F80" stroke-width="2.06851" stroke-miterlimit="10" stroke-linecap="round" stroke-linejoin="round"/>
<path d="M75.0732 159.834L85.3636 158.42" stroke="#173F80" stroke-width="2.06851" stroke-miterlimit="10" stroke-linecap="round" stroke-linejoin="round"/>
<path d="M98.8336 154.875L115.665 148.783" stroke="#173F80" stroke-width="2.06851" stroke-miterlimit="10" stroke-linecap="round" stroke-linejoin="round"/>
<path d="M101.937 157.989L107.735 158.859" stroke="#173F80" stroke-width="2.06851" stroke-miterlimit="10" stroke-linecap="round" stroke-linejoin="round"/>
<path d="M58.0455 142.595C59.2612 146.045 61.1075 149.408 60.9491 153.084C60.7484 157.351 57.853 161.185 58.1162 165.456C58.3731 169.618 61.5502 172.835 63.204 176.609C63.6351 177.581 63.9533 178.607 64.1535 179.665L59.1692 182.965C57.7329 179.643 56.5866 176.219 55.7157 172.718C52.5743 160.089 53.1049 146.663 57.3658 134.027L57.8722 134.288C57.8969 137.177 56.8712 139.311 58.0455 142.595Z" fill="#0F70D1"/>
<path d="M135.02 142.076C138.269 154.609 137.812 167.958 133.581 180.545L122.738 175.176C122.813 172.67 122.283 170.135 122.707 167.664C123.667 162.005 129.18 158.309 130.982 152.857C132.618 147.918 130.925 142.536 130.597 137.327C130.495 135.869 130.597 134.043 130.969 132.275L131.496 131.928C132.947 135.226 134.125 138.623 135.02 142.076Z" fill="#0F70D1"/>
<path d="M139.74 65.1914L139.038 65.1196L71.4562 58.3293C71.4804 58.1068 71.5046 57.8843 71.5345 57.6818C71.9566 54.0908 73.0855 50.7431 74.7287 47.7332C78.364 41.1667 84.6229 36.3188 91.9919 34.3502C95.2376 33.4832 98.7315 33.1763 102.287 33.5443L114.164 34.7353C126.042 35.9262 135.538 44.1482 138.706 54.7519C139.716 58.0469 140.089 61.5766 139.74 65.1914Z" fill="#0055A8"/>
<path d="M139.734 65.5935L139.029 65.5173C123.364 59.3663 106.259 57.5013 93.8452 57.0752C84.3008 56.7462 76.2247 57.2243 71.2199 57.6606C71.6302 54.0745 72.7511 50.7359 74.3898 47.7382C79.4706 47.4118 86.1661 47.1845 93.7916 47.4286C103.734 47.7623 113.225 48.8182 122.003 50.5999C127.879 51.7958 133.451 53.3085 138.672 55.1285C139.683 58.4533 140.071 61.9831 139.734 65.5935Z" fill="#173F80"/>
<path d="M118.593 52.2853C118.657 52.8128 118.714 53.4727 118.306 53.8693C117.799 54.3803 116.927 54.2949 116.59 55.0205C116.343 55.5251 116.645 55.8992 117.023 56.2307C117.342 56.5128 117.743 56.7726 118.068 57.0749L112.5 56.1537C111.657 56.0168 110.839 55.7419 110.102 55.292C109.811 55.1109 109.636 54.8762 109.679 54.4936C109.851 52.9633 113.262 54.0239 113.282 52.3396C113.296 51.5508 112.386 50.8 111.37 50.2094C111.24 50.1363 111.315 49.9412 111.453 49.9683C113.512 50.4009 115.515 50.7179 117.51 50.9283C117.801 50.9567 118.066 51.1232 118.221 51.3635C118.42 51.6791 118.553 51.9913 118.593 52.2853Z" fill="#0064C8"/>
<path d="M151.452 74.6007C151.191 79.0215 137.818 81.5509 137.736 81.5719L137.527 74.3902C132.186 70.1878 119.198 66.1417 103.764 64.302C89.6082 62.6124 77.0802 63.1928 70.4249 65.4784L69.2761 73.6786C69.2028 73.654 67.4241 72.9172 66.5949 72.5659C59.8818 69.559 55.9681 66.2484 56.2956 63.197C56.6764 59.4172 63.4081 56.7871 73.741 55.7062C82.2742 54.8036 93.254 54.9655 105.15 56.3878C117.572 57.8709 128.731 60.4779 137.004 63.5411C146.234 66.9444 151.666 70.9286 151.452 74.6007Z" fill="#0F70D1"/>
<path d="M151.146 75.9112C149.516 78.9234 140.725 81.1341 137.696 81.809L137.505 74.6134C132.162 70.3833 119.151 66.2813 103.682 64.3807C89.4934 62.6351 76.9315 63.1697 70.2532 65.4347L69.0802 73.6456C69.0068 73.6207 67.2255 72.8758 66.395 72.5208C62.4658 70.7545 59.498 68.8766 57.7702 67.0122C59.1797 63.7733 65.5993 61.53 75.021 60.5922C83.5785 59.7199 94.5863 59.923 106.51 61.3923C118.959 62.9246 130.141 65.578 138.427 68.6778C144.441 70.9391 148.864 73.4269 151.146 75.9112Z" fill="#0055A8"/>
<path d="M137.48 75.5557L137.648 80.6112C137.648 80.6112 138.748 80.386 139.388 79.3378C140.755 77.1722 137.48 75.5557 137.48 75.5557Z" fill="#1A1B16"/>
<path d="M70.0963 64.3734C70.0963 64.3734 68.1731 64.9133 67.1922 67.1299C66.1971 69.3726 69.3164 70.1954 69.3164 70.1954C69.6792 67.2258 70.0963 64.3734 70.0963 64.3734Z" fill="#1A1B16"/>
</g>
<defs>
<clipPath id="clip0_3_17172">
<rect width="198.663" height="198.663" fill="white" transform="translate(0.157227 0.375977)"/>
</clipPath>
</defs>
</svg>
