<svg width="200" height="200" viewBox="0 0 200 200" fill="none" xmlns="http://www.w3.org/2000/svg">
<g clip-path="url(#clip0_3_17255)">
<rect width="198.663" height="198.663" transform="translate(0.446289 0.375977)" fill="#FF7070"/>
<path d="M325.785 269.599L293.817 285.911L258.352 305.331L249.634 310.108C237.876 316.556 223.048 313.54 214.817 303.03L201.665 286.243L176.362 253.929C176.362 253.929 180.821 299.223 171.863 345.802C123.635 360.668 84.5768 359.241 45.7822 351.666C37.0675 349.977 28.4042 347.924 19.611 345.712C2.23967 326.059 7.64303 211.489 7.64303 211.489L-6.23401 217.697L-10.2492 219.5L-71.6551 247.134L-49.0847 313.19L-116.223 334.049L-143.036 240.557L-143.85 237.749C-148.394 221.91 -140.649 205.173 -125.533 198.143L-106.653 189.288L-17.3155 147.393C2.04748 138.323 23.7602 135.219 44.9778 138.499L46.464 138.705L148.847 154.55L169.412 157.708C186.345 159.364 201.513 168.68 210.404 182.925L249.514 245.542C249.514 245.542 282.589 225.772 309.435 208.76C305.942 258.519 325.785 269.599 325.785 269.599Z" fill="#5FAEF2"/>
<path d="M45.3633 354.511C36.78 352.782 28.2481 350.683 19.5884 348.422C2.50938 328.435 8.04599 212.093 8.04599 212.093L-5.63832 218.375C-2.01919 206.052 4.58188 191.437 15.3705 204.791C18.5765 208.784 19.4883 214.184 19.7085 219.319C20.0754 228.544 18.5912 237.755 18.4826 247.027C18.3842 256.259 19.8472 265.983 25.3616 273.353C28.6053 277.698 33.1409 281.1 35.6002 285.881C40.0388 294.505 36.8839 305.157 39.18 314.588C41.1956 322.793 47.2773 329.585 48.8073 337.877C49.8755 343.659 48.448 349.643 45.3633 354.511Z" fill="#4598E0"/>
<path d="M309.02 218.872C304.421 220.317 299.633 221.335 295.212 223.246C285.616 227.341 278.301 235.171 270.349 241.83C262.387 248.528 252.693 254.493 242.248 253.613C238.859 253.344 235.284 252.143 233.311 249.368C230.631 245.53 231.958 240.224 230.222 235.868C228.477 231.383 223.796 228.68 221.227 224.575C215.82 215.919 217.968 201.978 215.294 192.162C214.515 189.227 213.656 186.104 213.159 182.904L249.512 241.516C249.512 241.516 282.543 221.719 309.364 204.642C309.05 209.826 308.939 214.556 309.02 218.872Z" fill="#71B6F2"/>
<path d="M-71.8606 249.464L-49.7483 316.596L-74.2144 324.372C-78.1486 321.595 -81.8548 318.75 -83.4643 314.276C-86.1267 306.797 -81.3646 298.952 -80.3038 291.079C-78.9951 281.223 -83.6261 271.694 -85.7225 261.973C-87.8189 252.251 -86.0812 239.862 -77.0547 235.99C-72.1347 233.861 -66.341 234.948 -61.3042 233.191C-55.9401 231.306 -52.1044 226.463 -46.9941 223.914C-38.2619 219.539 -27.054 222.38 -18.8414 217.058C-14.5613 214.293 -11.7956 209.682 -8.01668 206.231C-5.50076 203.944 -0.0596641 200.586 3.48368 202.408C7.51063 204.483 6.23326 208.374 6.00306 212.623C6.00127 212.964 5.94983 213.335 5.94804 213.676L-71.8606 249.464Z" fill="#4598E0"/>
<path d="M78.8665 93.3939C78.8665 93.3939 40.3073 88.0265 25.6557 117.085C18.6447 119.058 10.8539 125.705 8.56267 140.198C5.18306 161.386 145.37 165.725 145.37 165.725C145.37 165.725 164.686 113.157 78.8665 93.3939Z" fill="#5FAEF2"/>
<path d="M70.4958 99.8869C70.4958 99.8869 48.0501 100.001 48.1157 116.632C48.1482 128.094 58.8948 136.833 70.8174 142.51C86.7641 150.163 124.097 152.862 127.545 149.616C133.736 143.87 136.095 132.756 123.914 122.944C97.1574 101.502 70.4958 99.8869 70.4958 99.8869Z" fill="#1A1B16"/>
<path d="M171.829 188.113C171.829 188.113 176.422 209.458 176.079 252.135" stroke="#1A1B16" stroke-width="3.32807" stroke-miterlimit="10" stroke-linecap="round" stroke-linejoin="round"/>
<path d="M127.867 149.437C126.541 138.6 125.348 128.912 125.348 128.912Z" fill="#0F70D1"/>
<path d="M103.281 163.577C103.461 169.495 99.3013 174.896 94.0547 177.738C88.8184 180.54 82.653 181.161 76.7011 181.118C70.739 181.115 64.7498 180.555 58.8343 181.198C48.3444 182.403 38.4236 187.683 31.5601 195.646" stroke="white" stroke-width="2.66246" stroke-miterlimit="10" stroke-linecap="round" stroke-linejoin="round"/>
<path d="M25.4971 203.24C25.0922 202.837 25.096 202.157 25.5352 201.761L28.8509 198.537C29.2505 198.13 29.9258 198.135 30.3206 198.578C30.7256 198.981 30.7218 199.661 30.2825 200.058L26.9669 203.282C26.5276 203.678 25.9021 203.643 25.4971 203.24Z" fill="white"/>
<path d="M112.706 166.052C112.486 179.332 102.499 190.182 92.2578 198.358C82.0166 206.534 70.3678 213.957 64.3236 225.668" stroke="white" stroke-width="2.66246" stroke-miterlimit="10" stroke-linecap="round" stroke-linejoin="round"/>
<path d="M9.51375 137.092C9.51375 137.092 22.4731 134.726 27.3958 137.266C30.868 144.62 44.2661 156.741 57.0357 159.621C69.8053 162.502 75.2638 168.466 75.2638 168.466" stroke="#1A1B16" stroke-width="3.32807" stroke-miterlimit="10" stroke-linecap="round" stroke-linejoin="round"/>
<path d="M25.2004 117.832L30.658 117.098" stroke="#1A1B16" stroke-width="3.32807" stroke-miterlimit="10" stroke-linecap="round" stroke-linejoin="round"/>
<path d="M148.08 151.101C148.08 151.101 147.28 156.095 133.743 164.93" stroke="#1A1B16" stroke-width="3.32807" stroke-miterlimit="10" stroke-linecap="round" stroke-linejoin="round"/>
<path d="M62.1041 89.9143C62.1041 89.9143 45.1232 35.4721 82.4621 38.4605C93.8483 25.0451 115.952 23.126 126.196 30.4921C132.945 35.3385 132.707 42.9786 131.552 48.2609C131.552 48.2609 145.11 48.0331 142.438 57.909C139.659 68.1764 122.269 80.1927 77.7401 74.8891C82.0503 88.9176 85.2276 101.834 62.1041 89.9143Z" fill="#1A1B16"/>
<path d="M132.188 42.2423C132.188 42.2423 132.364 48.0343 125.032 55.1802" stroke="#0064C8" stroke-width="2.66246" stroke-miterlimit="10" stroke-linecap="round" stroke-linejoin="round"/>
<path d="M83.1463 36.7821C81.5655 38.4162 79.9255 40.4195 78.6187 42.6942" stroke="#0064C8" stroke-width="2.66246" stroke-miterlimit="10" stroke-linecap="round" stroke-linejoin="round"/>
<path d="M72.4863 66.3525L76.8261 70.1556" stroke="#0064C8" stroke-width="2.66246" stroke-miterlimit="10" stroke-linecap="round" stroke-linejoin="round"/>
<path d="M126.889 149.62C122.653 153.746 112.209 154.443 103.069 153.694C81.7026 151.993 70.7009 142.274 70.7009 142.274L67.5977 104.501C67.2794 104.419 66.9611 104.337 66.6428 104.255C61.194 102.507 58.8162 96.7142 59.9648 90.8987C60.1908 89.6837 60.8758 88.3327 61.67 87.0523C64.9374 81.742 72.8765 81.7137 75.4144 87.3781C76.5557 89.8803 77.4258 92.7792 78.7426 92.4404C80.2889 92.0335 80.0767 89.0498 79.6922 86.5735C79.0472 82.6291 77.6238 70.1217 77.6238 70.1217C77.6238 70.1217 97.5882 83.77 128.664 71.8932C128.704 71.9035 128.714 71.8636 128.754 71.8739C130.085 81.259 131.999 95.1665 133.278 106.745C135.229 124.652 124.454 129.296 124.454 129.296L124.968 133.589L126.889 149.62Z" fill="#F8934F"/>
<path d="M73.4719 96.2908C73.4719 96.2908 70.7518 99.0541 68.073 97.0277C65.3942 95.0012 66.4714 91.8215 66.4714 91.8215C67.5533 92.0957 68.5849 92.3993 69.5757 92.861C71.1873 93.5643 72.6363 94.7316 73.4719 96.2908Z" fill="#F77C2D"/>
<path d="M124.627 128.796L125.091 133.144L112.794 131.805C112.794 131.805 134.205 127.901 131.129 102.981C128.778 83.8153 128.899 74.2135 129.106 70.7876C129.144 70.7985 129.154 70.7583 129.192 70.7692C130.407 80.2771 132.15 94.3657 133.299 106.092C135.049 124.226 124.627 128.796 124.627 128.796Z" fill="#F9AF79"/>
<path d="M91.0394 152.469C77.5853 148.752 70.7352 142.614 70.7352 142.614L67.9036 105.237C69.7346 104.861 72.4889 105.588 73.0238 106.878C73.4375 107.839 72.4339 110.136 72.577 111.316C72.7594 112.973 73.3658 114.621 74.4922 115.907C75.2906 116.848 76.3099 117.598 77.0585 118.567C80.8121 123.376 76.9147 131.201 80.4973 136.173C81.7522 137.918 83.7798 138.991 85.437 140.342C89.0045 143.197 91.1157 147.843 91.0394 152.469Z" fill="#F77C2D"/>
<path d="M66.5022 91.8247C66.5022 91.8247 65.3932 94.9281 68.05 96.9514C70.7068 98.9747 73.4538 96.3019 73.4538 96.3019C72.6745 94.7722 71.2381 93.6079 69.6451 92.8579C68.0521 92.1079 66.3237 91.695 64.5636 91.3978" stroke="#BF3028" stroke-width="2.66246" stroke-miterlimit="10" stroke-linecap="round" stroke-linejoin="round"/>
<path d="M67.4693 105.142C67.4693 105.142 69.6964 105.818 72.5645 105.213" stroke="#BF3028" stroke-width="2.66246" stroke-miterlimit="10" stroke-linecap="round" stroke-linejoin="round"/>
<path d="M108.635 131.913C108.635 131.913 117.506 133.323 125.18 129.252C125.613 132.673 126.302 138.601 126.302 138.601C126.302 138.601 111.501 134.275 108.635 131.913Z" fill="#BF3028"/>
<path d="M122.066 73.3884C116.066 76.3775 109.511 78.1886 102.804 78.587C94.221 79.1092 85.4858 77.3851 77.7786 73.6623C77.5869 73.5736 77.3549 73.4751 77.1229 73.3766C76.8397 71.3066 76.6575 69.8448 76.6575 69.8448C76.6575 69.8448 94.2724 81.4141 122.066 73.3884Z" fill="#F77C2D"/>
<path d="M117.23 101.361C117.23 101.361 113.632 103.005 112.82 100.357C112.016 97.8368 115.271 95.889 117.565 96.6872C119.86 97.4853 120.142 98.4826 120.142 98.4826L117.23 101.361Z" fill="#F77C2D"/>
<path d="M116.412 101.519L118.053 100.495C119.203 99.757 119.702 98.3195 119.256 96.995L115.702 86.0186" stroke="#BF3028" stroke-width="2.66246" stroke-miterlimit="10" stroke-linecap="round" stroke-linejoin="round"/>
<path d="M110.528 119.016C110.095 119.974 108.527 120.22 107.02 119.615C105.512 119.01 104.585 117.692 104.977 116.724C105.41 115.765 106.735 116.569 108.282 117.185C109.83 117.8 110.961 118.058 110.528 119.016Z" fill="#F77C2D"/>
<path d="M118.139 109.982C117.98 106.948 114.684 106.823 112.538 106.712C111.739 106.667 110.89 106.65 110.294 106.492C109.619 106.314 108.761 105.879 107.982 105.465C106.197 104.535 103.969 103.363 102.219 104.853C101.156 105.735 100.792 107.01 101.245 108.418C102.085 111.01 105.759 113.853 109.048 114.599C109.366 114.683 109.695 114.728 109.984 114.763C112.856 115.025 115.343 114.395 116.849 113.007C117.771 112.171 118.21 111.082 118.139 109.982Z" fill="#1A1B16"/>
<path d="M110.242 113.038C109.705 112.978 109.15 112.83 108.607 112.643C107.332 112.178 106.499 110.915 106.536 109.593L106.588 108.067C106.618 107.367 107.389 106.907 108.058 107.253C108.727 107.598 109.436 107.953 110.12 108.095C112.271 108.627 116.047 107.804 116.163 110.082C116.243 111.893 113.895 113.389 110.242 113.038Z" fill="white"/>
<path d="M104.226 91.8804C104.38 93.1922 104.077 94.1636 103.109 94.313C102.141 94.4625 101.223 93.4845 101.03 92.1617C100.836 90.8388 101.516 89.7201 102.473 89.6099C103.481 89.4715 104.072 90.5686 104.226 91.8804Z" fill="#1A1B16"/>
<path d="M125.694 88.2092C125.851 89.3527 125.569 90.2456 124.701 90.3386C123.832 90.4316 123.039 89.6158 122.892 88.4329C122.735 87.2893 123.305 86.2664 124.173 86.1734C125.003 86.0693 125.537 87.0656 125.694 88.2092Z" fill="#1A1B16"/>
<path d="M96.8681 83.8362C99.4022 82.7289 102.251 82.361 105.022 82.7536" stroke="#1A1B16" stroke-width="2.66246" stroke-miterlimit="10" stroke-linecap="round" stroke-linejoin="round"/>
<path d="M120.653 78.7105C122.823 77.9978 125.16 77.7791 127.473 78.128" stroke="#1A1B16" stroke-width="2.66246" stroke-miterlimit="10" stroke-linecap="round" stroke-linejoin="round"/>
</g>
<defs>
<clipPath id="clip0_3_17255">
<rect width="198.663" height="198.663" fill="white" transform="translate(0.446289 0.375977)"/>
</clipPath>
</defs>
</svg>
